<svg xmlns="http://www.w3.org/2000/svg" width="37" height="36"><path d="M0 0 C5.02118834 2.21999408 8.50610768 5.29086366 10.74609375 10.34765625 C12.40150526 16.74309701 12.06492068 21.51109854 8.74609375 27.34765625 C5.98049781 31.54373285 3.5188597 33.69888256 -1.25390625 35.34765625 C-7.47561423 36.02453357 -13.00105842 36.09969041 -18.25390625 32.34765625 C-22.80265965 27.59214133 -24.98677754 24.0634648 -25.62890625 17.53515625 C-25.46059409 11.59934749 -23.00916416 7.01515126 -18.75390625 2.97265625 C-12.66501662 -0.98512201 -7.1401249 -2.06655261 0 0 Z M-19.57421875 7.890625 C-21.92696657 11.48555786 -22.94541244 14.91697119 -22.70703125 19.29296875 C-21.62276763 24.20954345 -18.73545756 27.95325502 -15.12890625 31.34765625 C-9.29394026 33.37720964 -3.47216541 33.31562388 2.18359375 30.84765625 C6.01196565 27.11265927 8.37193936 23.5004572 9.01171875 18.109375 C8.81114677 12.30281621 6.41954995 9.04429864 2.53515625 4.87890625 C-0.89386208 1.94402593 -4.6010445 2.00421541 -8.90625 2.07421875 C-13.42083186 2.60004359 -16.62967052 4.44951094 -19.57421875 7.890625 Z " fill="#FFFFFF" transform="translate(25.25390625,0.65234375)"></path><path d="M0 0 C5.28 0 10.56 0 16 0 C16 0.99 16 1.98 16 3 C11.05 3 6.1 3 1 3 C0.67 2.01 0.34 1.02 0 0 Z " fill="#FFFFFF" transform="translate(11,16)"></path></svg>