<svg xmlns="http://www.w3.org/2000/svg" width="37" height="37"><path d="M0 0 C4.43569429 3.43227084 6.93741887 7.26211096 7.91015625 12.8046875 C8.23534152 18.60721224 6.80039141 23.31397742 3.484375 28.07421875 C-0.35769156 32.29763187 -4.95756011 33.99394082 -10.58984375 34.3046875 C-16.15583844 34.00719468 -20.85569832 32.24395298 -24.6640625 28.0859375 C-28.4598432 22.95238881 -29.90772339 18.25556916 -29.08984375 11.8046875 C-27.200219 5.93065399 -24.18195191 2.19942628 -19.08984375 -1.1953125 C-12.61674691 -4.05841303 -6.13211526 -3.50734069 0 0 Z M-21.671875 4.23828125 C-25.75581896 8.95776692 -26.50540291 12.67518992 -26.08984375 18.8046875 C-24.04666536 24.48018303 -20.49236934 28.10342471 -15.08984375 30.8046875 C-10.43936081 31.37204642 -6.99253798 31.2645506 -2.77734375 29.1171875 C1.35623334 25.56038861 3.96136106 22.95950237 4.91015625 17.4921875 C5.25409938 12.45887334 3.92401704 8.81711663 0.91015625 4.8046875 C-5.90374537 -1.1006939 -14.77211057 -2.01409788 -21.671875 4.23828125 Z " fill="#000000" transform="translate(29.08984375,3.1953125)"></path><path d="M0 0 C1.32 0 2.64 0 4 0 C4 1.65 4 3.3 4 5 C5.65 5 7.3 5 9 5 C9 5.99 9 6.98 9 8 C7.35 8 5.7 8 4 8 C4 9.98 4 11.96 4 14 C2.68 13.67 1.36 13.34 0 13 C0 11.35 0 9.7 0 8 C-1.32 8 -2.64 8 -4 8 C-4 7.01 -4 6.02 -4 5 C-2.68 5 -1.36 5 0 5 C0 3.35 0 1.7 0 0 Z " fill="#000000" transform="translate(16,13)"></path></svg>