<svg xmlns="http://www.w3.org/2000/svg" width="19" height="19" viewBox="0 0 19 19" fill="none"><path d="M0.367215 6.31094L4.13721 6.34806L4.00526 18.3198L0.235266 18.278L0.367215 6.31094ZM2.33233 0.378433C2.76411 0.385791 3.18401 0.518934 3.53907 0.761058C3.89414 1.00318 4.16849 1.34345 4.32749 1.73895C4.4865 2.13445 4.52304 2.56748 4.43253 2.98343C4.34203 3.39937 4.12852 3.77959 3.81892 4.07616C3.50933 4.37272 3.11752 4.57235 2.6929 4.64985C2.26828 4.72736 1.82986 4.67927 1.43295 4.51167C1.03604 4.34406 0.698397 4.06443 0.462607 3.70805C0.226816 3.35166 0.103445 2.93449 0.108034 2.50912C0.109841 2.22471 0.169051 1.9435 0.282235 1.68185C0.39542 1.4202 0.56031 1.18333 0.767305 0.985048C0.974301 0.786764 1.21928 0.631018 1.48796 0.526875C1.75664 0.422732 2.04367 0.372271 2.33233 0.378433Z" fill="black"></path><path d="M6.47833 6.37538L10.0975 6.41251V8.0465C10.4664 7.43846 10.9965 6.94088 11.6308 6.6072C12.2651 6.27352 12.9797 6.11635 13.6979 6.15256C17.515 6.19434 18.1983 8.67782 18.1653 11.9087L18.0946 18.4678L14.4047 18.4307L14.4707 12.605C14.4707 11.2124 14.5037 9.42983 12.5433 9.40662C10.5829 9.38341 10.2625 10.9013 10.2483 12.3914L10.1823 18.3193L6.36523 18.2775L6.47833 6.37538Z" fill="black"></path></svg>