<svg xmlns="http://www.w3.org/2000/svg" width="71" height="71" viewBox="0 0 71 71" fill="none"><g clip-path="url(#clip0_2029_5199)"><path d="M2.79949 23.7421C2.79949 24.3816 2.79949 24.9048 2.79949 25.428C2.79949 36.5607 2.79949 47.7224 2.79949 58.8551C2.79949 61.9071 4.07844 63.157 7.15955 63.157C17.333 63.157 27.5065 63.157 37.68 63.157C38.116 63.157 38.6101 63.0408 38.9589 63.2152C39.3659 63.4186 39.9472 63.9418 39.9181 64.2325C39.86 64.6685 39.3659 65.1336 38.9589 65.4243C38.6973 65.5987 38.2032 65.4824 37.8253 65.4824C27.5646 65.4824 17.2749 65.4824 7.01421 65.4824C2.77042 65.4824 0.474121 63.157 0.474121 58.9132C0.474121 43.8856 0.474121 28.8579 0.474121 13.8593C0.474121 9.67362 2.79949 7.34825 6.92701 7.34825C8.58383 7.34825 10.2116 7.34825 12.1009 7.34825C12.1009 6.56344 12.0719 5.8077 12.1009 5.05196C12.1882 2.40685 14.1356 0.401224 16.6935 0.372157C19.3096 0.34309 21.3443 2.34872 21.4024 5.05196C21.4315 5.77863 21.4024 6.47624 21.4024 7.26105C24.5126 7.26105 27.5065 7.26105 30.7039 7.26105C30.7039 6.50531 30.6748 5.74957 30.7039 4.99382C30.7911 2.37779 32.7676 0.372157 35.3255 0.34309C37.8834 0.314023 39.8891 2.29058 40.0053 4.90662C40.0344 5.6333 40.0053 6.35997 40.0053 7.20292C43.0864 7.20292 46.1094 7.20292 49.3068 7.20292C49.3068 6.44718 49.2777 5.69143 49.3068 4.93569C49.394 2.31965 51.4287 0.34309 53.9575 0.34309C56.5154 0.34309 58.492 2.31965 58.6083 4.96475C58.6373 5.69143 58.6083 6.41811 58.6083 7.31919C60.4104 7.31919 62.1544 7.31919 63.8694 7.31919C67.8516 7.31919 70.2351 9.67362 70.2351 13.6267C70.2351 23.277 70.2351 32.8982 70.2351 42.5485C70.2351 42.8973 70.3514 43.3042 70.177 43.5368C69.9154 43.9146 69.4503 44.4378 69.0724 44.4378C68.6945 44.4378 68.2004 43.9437 67.9679 43.5368C67.7644 43.188 67.9097 42.6938 67.9097 42.2578C67.9097 36.0956 67.9097 29.9624 67.9097 23.713C46.2257 23.7421 24.5998 23.7421 2.79949 23.7421ZM21.4024 9.76082C21.4024 10.5456 21.4024 11.2142 21.4024 11.8827C21.3443 14.615 19.3677 16.6207 16.7807 16.6497C14.1938 16.6788 12.1591 14.6441 12.1009 11.9409C12.0719 11.2432 12.1009 10.5166 12.1009 9.70269C9.92092 9.70269 7.88622 9.61549 5.8806 9.73175C4.28191 9.81896 2.91575 11.1851 2.85762 12.7838C2.77042 15.5742 2.82855 18.3647 2.82855 21.2132C24.5707 21.2132 46.1676 21.2132 67.8807 21.2132C67.8807 18.3356 67.9679 15.5452 67.8516 12.7547C67.7935 11.156 66.4273 9.81896 64.7995 9.73175C62.7939 9.61549 60.7592 9.70269 58.6083 9.70269C58.6083 10.5456 58.6373 11.2432 58.6083 11.9699C58.5211 14.6732 56.4864 16.6788 53.8994 16.6497C51.3706 16.6207 49.394 14.615 49.3068 11.9699C49.2777 11.2142 49.3068 10.4584 49.3068 9.76082C46.0804 9.76082 43.1155 9.76082 40.0053 9.76082C40.0053 10.6038 40.0344 11.3595 40.0053 12.1443C39.8891 14.6732 37.9125 16.6207 35.4127 16.6497C32.8839 16.6788 30.8201 14.7022 30.7039 12.1153C30.6748 11.3595 30.7039 10.6038 30.7039 9.76082C27.5937 9.76082 24.5998 9.76082 21.4024 9.76082ZM19.077 8.62721C19.077 7.55172 19.077 6.50531 19.077 5.42983C19.077 5.34263 19.077 5.22636 19.077 5.13916C18.9898 3.6858 18.0306 2.69752 16.7226 2.72659C15.4727 2.75566 14.4844 3.6858 14.4554 5.08102C14.3972 7.34825 14.4263 9.64455 14.4554 11.9118C14.4844 13.3651 15.5018 14.3534 16.8098 14.3244C18.1178 14.2953 19.048 13.307 19.077 11.8246C19.1061 10.7491 19.077 9.67362 19.077 8.62721ZM37.68 8.51094C37.68 7.34825 37.709 6.18557 37.68 5.02289C37.6218 3.65674 36.6336 2.69752 35.3837 2.69752C34.1047 2.69752 33.1164 3.62767 33.0874 5.02289C33.0292 7.34825 33.0292 9.67362 33.0874 11.999C33.1164 13.3651 34.1338 14.3244 35.3837 14.3244C36.6336 14.3244 37.6218 13.3651 37.68 11.999C37.709 10.8363 37.68 9.67362 37.68 8.51094ZM56.2829 8.56907C56.2829 7.40639 56.312 6.24371 56.2829 5.08102C56.2248 3.6858 55.2655 2.75566 54.0157 2.72659C52.7076 2.69752 51.6903 3.6858 51.6612 5.13916C51.6322 7.40639 51.6031 9.70269 51.6612 11.9699C51.6903 13.3361 52.6495 14.2953 53.9285 14.3244C55.2365 14.3534 56.2248 13.3651 56.2829 11.9118C56.312 10.7782 56.2829 9.67362 56.2829 8.56907Z" fill="#9C122A"></path><path d="M55.2075 39.9034C63.4626 39.9034 70.2643 46.7051 70.2643 54.9892C70.2643 63.3605 63.4916 70.1332 55.1494 70.1332C46.8071 70.1332 40.0345 63.3605 40.0345 54.9892C40.0054 46.647 46.8071 39.8743 55.2075 39.9034ZM67.9098 55.0183C67.9098 47.9841 62.1836 42.2288 55.1785 42.2288C48.0861 42.1997 42.3308 47.9841 42.3599 55.0764C42.3889 62.0816 48.1152 67.8078 55.1785 67.8078C62.1546 67.8078 67.9098 62.0525 67.9098 55.0183Z" fill="#9C122A"></path><path d="M14.5134 37.578C9.89173 37.578 9.7464 37.4617 9.77546 32.7529C9.77546 30.0787 10.444 29.4102 13.1182 29.4102C14.1937 29.4102 15.2401 29.4102 16.3156 29.4102C18.263 29.4392 19.0769 30.2531 19.106 32.2587C19.106 33.0726 19.106 33.8865 19.106 34.7294C19.0769 36.706 18.263 37.5199 16.2865 37.5489C15.6761 37.578 15.0947 37.578 14.5134 37.578ZM16.7225 31.8518C15.1238 31.8518 13.6705 31.8518 12.2171 31.8518C12.2171 33.0145 12.2171 34.09 12.2171 35.1364C13.7867 35.1364 15.2401 35.1364 16.7225 35.1364C16.7225 34.0028 16.7225 33.0145 16.7225 31.8518Z" fill="#9C122A"></path><path d="M28.2913 37.578C23.9313 37.578 23.7278 37.3745 23.7278 33.0144C23.7278 30.0205 24.3091 29.4392 27.2449 29.4392C28.3494 29.4392 29.454 29.4101 30.5876 29.4392C32.1282 29.4973 32.9711 30.3693 33.0292 31.9099C33.0583 32.9854 33.0583 34.0318 33.0292 35.1073C32.9711 36.706 32.0991 37.5489 30.4423 37.607C29.7447 37.607 29.018 37.578 28.2913 37.578ZM26.1404 35.1363C27.739 35.1363 29.1924 35.1363 30.5876 35.1363C30.5876 33.9446 30.5876 32.8691 30.5876 31.8518C29.0471 31.8518 27.6228 31.8518 26.1404 31.8518C26.1404 32.9563 26.1404 34.0027 26.1404 35.1363Z" fill="#9C122A"></path><path d="M42.1853 37.5782C37.9125 37.5782 37.6799 37.3457 37.6799 33.1019C37.6799 29.9627 38.2031 29.4104 41.4005 29.4104C42.4179 29.4104 43.4352 29.3813 44.4526 29.4104C46.0803 29.4685 46.9523 30.3115 47.0105 31.9101C47.0395 32.9275 47.0395 33.9448 47.0105 34.9622C46.9814 36.6481 46.1094 37.5201 44.3944 37.5492C43.6387 37.6073 42.912 37.5782 42.1853 37.5782ZM40.0925 35.1657C41.6912 35.1657 43.1155 35.1657 44.5688 35.1657C44.5688 34.003 44.5688 32.9275 44.5688 31.852C43.0283 31.852 41.5459 31.852 40.0925 31.852C40.0925 33.0147 40.0925 34.0611 40.0925 35.1657Z" fill="#9C122A"></path><path d="M56.283 37.5782C51.8357 37.5782 51.6323 37.4038 51.6613 32.9275C51.6613 30.0499 52.2717 29.4104 55.0912 29.4104C56.2539 29.4104 57.4166 29.3813 58.5793 29.4104C60.0326 29.4685 60.9047 30.3405 60.9628 31.7939C61.0209 32.8112 60.9919 33.8286 60.9628 34.8459C60.9337 36.7062 60.0908 37.5201 58.1723 37.5492C57.5329 37.5782 56.8934 37.5782 56.283 37.5782ZM54.0158 35.1366C55.6144 35.1366 57.0678 35.1366 58.5212 35.1366C58.5212 33.9739 58.5212 32.9566 58.5212 31.852C56.9806 31.852 55.5272 31.852 54.0158 31.852C54.0158 32.9856 54.0158 34.003 54.0158 35.1366Z" fill="#9C122A"></path><path d="M14.3973 48.0423C9.95004 48.0423 9.77563 47.8679 9.77563 43.3916C9.77563 40.514 10.386 39.9035 13.2346 39.9035C14.3973 39.9035 15.56 39.8745 16.7227 39.9035C18.176 39.9617 19.048 40.8337 19.1062 42.287C19.1643 43.3335 19.1352 44.4089 19.1062 45.4844C19.0771 47.1122 18.2051 47.9842 16.6064 48.0423C15.8507 48.0714 15.124 48.0423 14.3973 48.0423ZM16.6936 42.3452C15.0949 42.3452 13.6416 42.3452 12.2463 42.3452C12.2463 43.5369 12.2463 44.6124 12.2463 45.6298C13.7869 45.6298 15.2112 45.6298 16.6936 45.6298C16.6936 44.5252 16.6936 43.4788 16.6936 42.3452Z" fill="#9C122A"></path><path d="M28.3786 39.9033C32.855 39.9033 33.0294 40.0777 33.0294 44.525C33.0294 47.4608 32.448 48.0421 29.4541 48.0421C28.3496 48.0421 27.245 48.0712 26.1114 48.0421C24.658 47.984 23.786 47.112 23.7279 45.6877C23.6698 44.6703 23.6988 43.653 23.7279 42.6356C23.757 40.7463 24.5999 39.9324 26.4893 39.9033C27.1287 39.9033 27.7682 39.9033 28.3786 39.9033ZM30.6168 45.6586C30.6168 44.4378 30.6168 43.4204 30.6168 42.345C29.0762 42.345 27.6229 42.345 26.1405 42.345C26.1405 43.5076 26.1405 44.5831 26.1405 45.6586C27.7101 45.6586 29.1344 45.6586 30.6168 45.6586Z" fill="#9C122A"></path><path d="M14.4262 50.3674C18.9026 50.3674 19.077 50.5418 19.077 54.9891C19.077 57.9249 18.4956 58.5062 15.5017 58.5062C14.3972 58.5062 13.2926 58.5353 12.159 58.5062C10.7057 58.4481 9.83364 57.5761 9.77551 56.1227C9.71737 55.1054 9.74644 54.088 9.77551 53.0707C9.80457 51.1813 10.6475 50.3674 12.5369 50.3384C13.1764 50.3674 13.8158 50.3674 14.4262 50.3674ZM16.6935 52.78C15.1529 52.78 13.6996 52.78 12.2171 52.78C12.2171 53.9427 12.2171 55.0182 12.2171 56.0646C13.7868 56.0646 15.2401 56.0646 16.6935 56.0646C16.6935 54.931 16.6935 53.8846 16.6935 52.78Z" fill="#9C122A"></path><path d="M28.3784 58.5065C23.9312 58.5065 23.7277 58.332 23.7568 53.8557C23.7568 50.9781 24.3672 50.3386 27.1867 50.3386C28.3494 50.3386 29.5121 50.3095 30.6747 50.3386C32.1281 50.3967 33.0001 51.2688 33.0582 52.7221C33.1164 53.7395 33.0873 54.7568 33.0582 55.7741C33.0292 57.6344 32.1862 58.4483 30.2678 58.4774C29.6283 58.5064 28.9889 58.5065 28.3784 58.5065ZM30.6457 56.123C30.6457 54.9312 30.6457 53.8848 30.6457 52.7802C29.1051 52.7802 27.6518 52.7802 26.1694 52.7802C26.1694 53.9429 26.1694 55.0184 26.1694 56.123C27.6808 56.123 29.1051 56.123 30.6457 56.123Z" fill="#9C122A"></path><path d="M40.0053 42.2286C40.2378 43.711 39.3658 45.2515 40.9355 46.298C41.1099 46.4142 41.168 47.1118 40.9936 47.3444C40.732 47.6641 40.2378 48.042 39.86 48.0129C38.6682 47.9548 37.8543 47.2281 37.7381 46.0364C37.6218 44.6993 37.6218 43.3331 37.7381 41.996C37.8543 40.7461 38.6973 39.9904 39.9762 39.9323C41.4587 39.8741 42.9702 39.816 44.4526 39.9613C44.9467 40.0195 45.3827 40.688 45.8187 41.0949C45.3537 41.4728 44.9176 42.1414 44.4235 42.1995C43.0283 42.3448 41.6331 42.2286 40.0053 42.2286Z" fill="#9C122A"></path><path d="M52.7368 59.262C55.5854 56.4134 58.2886 53.7102 60.9919 51.007C61.3116 50.6872 61.5732 50.2512 61.9511 50.135C62.4162 50.0187 63.1138 50.0187 63.4626 50.2803C63.7242 50.4838 63.7242 51.2686 63.5207 51.6464C63.2591 52.1697 62.7068 52.5766 62.2418 53.0126C59.5385 55.7158 56.8353 58.4191 54.1321 61.1223C52.9112 62.3141 52.6496 62.3141 51.3997 61.0932C50.0336 59.7271 48.6674 58.3609 47.3013 56.9948C46.72 56.4134 46.4002 55.803 47.0688 55.1054C47.7373 54.4369 48.3768 54.7566 48.9581 55.338C50.1789 56.6169 51.3997 57.8377 52.7368 59.262Z" fill="#9C122A"></path></g><defs><clipPath id="clip0_2029_5199"><rect width="69.79" height="69.761" fill="white" transform="translate(0.474121 0.37207)"></rect></clipPath></defs></svg>