<svg xmlns="http://www.w3.org/2000/svg" width="68" height="69" viewBox="0 0 68 69" fill="none"><g clip-path="url(#clip0_2029_5164)"><path d="M52.0003 58.5048C49.6546 59.3312 47.5487 60.3441 45.3096 60.7706C37.8459 62.21 30.4889 58.0517 27.77 50.9612C27.3701 49.9216 26.8637 49.6817 25.8507 49.6817C21.719 49.735 17.5874 49.7084 13.4557 49.7084C12.9759 49.7084 12.4961 49.7084 11.9363 49.7084C11.9363 48.9087 11.9363 48.2689 11.9363 47.4426C14.4153 47.4426 16.8676 47.4426 19.3467 47.4426C21.7724 47.4426 24.2247 47.4426 26.8103 47.4426C26.3305 44.5371 27.0769 41.9248 27.6367 39.2325C28.0632 37.2333 27.7433 35.0742 27.77 32.995C27.77 31.0491 27.77 29.1032 27.77 27.0507C28.5163 27.0507 29.1561 27.0507 29.9558 27.0507C29.9558 29.6364 29.9558 32.2753 29.9558 35.2075C31.3685 33.928 32.5681 32.995 32.3548 31.0225C32.1416 28.9966 32.3015 26.9441 32.3015 24.8116C33.0479 24.8116 33.6876 24.8116 34.4873 24.8116C34.4873 26.8641 34.4873 28.97 34.4873 31.1024C36.6731 30.7026 36.8597 30.4894 36.8597 28.4901C36.8597 27.6638 36.8597 26.8108 36.8597 25.9045C37.6327 25.9045 38.2724 25.9045 39.0721 25.9045C39.0721 27.104 39.0721 28.2769 39.0721 29.5564C39.9251 29.4231 40.5915 29.3431 41.3912 29.2365C41.3912 26.6242 41.3912 24.0652 41.3912 21.3996C42.1642 21.3996 42.8306 21.3996 43.6303 21.3996C43.6303 23.9853 43.6303 26.5443 43.6303 29.1832C44.4033 29.3165 45.0697 29.4231 45.8961 29.583C45.8961 26.0644 45.8961 22.6258 45.8961 19.0806C46.6691 19.0806 47.3088 19.0806 48.1085 19.0806C48.1352 19.4804 48.1885 19.9602 48.1885 20.4134C48.1885 23.079 48.1885 25.7446 48.1885 28.4102C48.1885 30.516 48.1885 30.516 50.4809 31.1291C50.4809 28.6234 50.4809 26.1711 50.4809 23.6121C51.2273 23.6121 51.867 23.6121 52.7467 23.6121C52.7467 24.8116 52.7467 25.9845 52.7467 27.1573C52.7467 28.2236 52.88 29.3165 52.72 30.3561C52.4268 32.4086 53.1998 33.848 54.9858 35.0209C54.9858 32.7285 54.9858 30.4894 54.9858 28.1703C55.7588 28.1703 56.4252 28.1703 57.1716 28.1703C57.2249 28.4901 57.3049 28.8367 57.3049 29.1832C57.3315 30.5693 57.3049 31.9288 57.3049 33.3149C57.3315 36.327 57.1982 39.3125 58.1312 42.2713C58.611 43.8174 58.3978 45.6033 58.5044 47.3626C58.7176 47.3893 59.1175 47.4692 59.544 47.5226C59.544 48.189 59.544 48.8554 59.544 49.655C56.905 49.1752 57.5181 51.7076 56.3986 52.8538C58.691 55.1462 60.9301 57.3853 63.1425 59.5977C64.3954 60.8506 65.6482 62.1301 66.9277 63.3562C67.754 64.1559 67.7274 64.849 66.9277 65.622C65.9947 66.5017 65.0618 67.408 64.2088 68.3676C63.3824 69.2472 62.6894 69.1939 61.863 68.3409C58.8243 65.2755 55.7855 62.2367 52.72 59.1979C52.4268 58.9047 52.1069 58.6115 52.0003 58.5048ZM56.212 45.1502C56.212 37.6065 50.0811 31.5023 42.5641 31.5023C35.0471 31.5289 28.9428 37.6332 28.9695 45.1768C28.9695 52.7205 35.1004 58.8247 42.6174 58.7981C50.1344 58.7981 56.212 52.6938 56.212 45.1502ZM53.653 56.5856C56.8517 59.7843 59.9705 62.9297 63.1159 66.0752C63.5957 65.5687 64.1288 65.0089 64.6086 64.5291C61.4365 61.357 58.2911 58.2116 55.0924 55.0129C54.6659 55.5194 54.1594 56.0525 53.653 56.5856Z" fill="#9C122A"></path><path d="M62.7425 55.7056C62.2094 55.2525 61.7296 54.7993 61.4897 54.6127C61.6496 52.8801 61.8895 51.414 61.8895 49.9479C61.9162 38.8324 61.9162 27.7435 61.9162 16.6279C61.9162 13.3225 60.7966 12.203 57.5446 12.203C43.0171 12.203 28.4895 12.203 13.962 12.203C10.71 12.203 9.56374 13.3492 9.56374 16.6279C9.56374 28.09 9.56374 39.5521 9.56374 51.0142C9.56374 54.2129 10.7633 55.4124 13.9886 55.4124C18.5202 55.4124 23.0517 55.4124 27.6898 55.4124C27.6898 56.1588 27.6898 56.8519 27.6898 57.5716C27.3167 57.5982 27.0234 57.6515 26.7302 57.6515C22.252 57.6515 17.7471 57.6782 13.2689 57.6515C9.67037 57.6249 7.35129 55.3058 7.35129 51.7072C7.32463 39.7653 7.32463 27.7968 7.35129 15.8549C7.35129 12.2296 9.75033 9.88392 13.4022 9.88392C28.3296 9.88392 43.257 9.85726 58.1844 9.88392C61.8096 9.88392 64.182 12.283 64.2086 15.9082C64.2086 27.8501 64.2086 39.8186 64.2086 51.7606C64.182 53.2533 63.8354 54.5594 62.7425 55.7056Z" fill="#9C122A"></path><path d="M57.2248 7.56507C56.5318 7.56507 55.892 7.56507 55.1723 7.56507C55.1457 7.08526 55.1457 6.63211 55.0923 6.20561C54.9057 4.49962 53.6796 3.27345 51.9736 3.11351C51.5204 3.0602 51.0939 3.08685 50.6408 3.08685C36.1666 3.08685 21.6923 3.08685 7.19144 3.08685C3.88609 3.08685 2.7932 4.15309 2.7932 7.45844C2.7932 18.9739 2.81985 30.4626 2.76654 41.978C2.76654 43.9506 3.27301 45.47 5.29886 46.243C5.11227 46.936 4.95234 47.5758 4.81906 48.1889C2.6066 48.0289 0.714025 45.8698 0.500777 43.3375C0.474121 42.911 0.474121 42.5111 0.474121 42.1113C0.474121 30.5159 0.474121 18.9205 0.474121 7.32516C0.474121 3.03354 2.71323 0.794434 7.05816 0.794434C21.799 0.794434 36.5397 0.794434 51.3072 0.794434C54.9857 0.794434 57.518 3.32676 57.3848 6.87201C57.3581 7.08526 57.2781 7.29851 57.2248 7.56507Z" fill="#9C122A"></path><path d="M20.9192 31.5557C20.9192 36.0872 20.9192 40.5387 20.9192 45.0436C20.1995 45.0436 19.5064 45.0436 18.7334 45.0436C18.7334 40.5387 18.7334 36.0872 18.7334 31.5557C19.4798 31.5557 20.1462 31.5557 20.9192 31.5557Z" fill="#9C122A"></path><path d="M23.3184 34.9673C24.0914 34.9673 24.7312 34.9673 25.4509 34.9673C25.4775 35.2338 25.5042 35.4471 25.5042 35.6603C25.5042 38.7524 25.5042 41.8445 25.5042 45.0433C24.7312 45.0433 24.0648 45.0433 23.2917 45.0433C23.3184 41.7113 23.3184 38.4059 23.3184 34.9673Z" fill="#9C122A"></path><path d="M16.361 45.0968C15.6413 45.0968 14.9749 45.0968 14.2285 45.0968C14.2285 42.8844 14.2285 40.6986 14.2285 38.4595C14.9216 38.4595 15.6146 38.4595 16.361 38.4595C16.361 40.6719 16.361 42.8311 16.361 45.0968Z" fill="#9C122A"></path><path d="M14.2285 5.40576C15.0015 5.40576 15.6413 5.40576 16.361 5.40576C16.361 6.12547 16.361 6.76522 16.361 7.53824C15.6946 7.53824 15.0015 7.53824 14.2285 7.53824C14.2285 6.81853 14.2285 6.12547 14.2285 5.40576Z" fill="#9C122A"></path><path d="M7.27144 7.59176C6.49842 7.59176 5.85867 7.59176 5.1123 7.59176C5.1123 6.84539 5.1123 6.17899 5.1123 5.43262C5.80536 5.43262 6.49842 5.43262 7.27144 5.43262C7.27144 6.12567 7.27144 6.79208 7.27144 7.59176Z" fill="#9C122A"></path><path d="M11.8296 5.45947C11.8296 6.20584 11.8296 6.84559 11.8296 7.5653C11.0832 7.5653 10.4168 7.5653 9.6438 7.5653C9.6438 6.84559 9.6438 6.20584 9.6438 5.45947C10.3369 5.45947 11.0299 5.45947 11.8296 5.45947Z" fill="#9C122A"></path><path d="M11.9629 14.4688C12.6826 14.4688 13.269 14.4688 13.9888 14.4688C13.9888 15.1885 13.9888 15.9082 13.9888 16.6812C13.2957 16.6812 12.6826 16.6812 11.9629 16.6812C11.9629 15.9615 11.9629 15.2951 11.9629 14.4688Z" fill="#9C122A"></path><path d="M16.4944 16.6281C16.4944 15.8817 16.4944 15.2153 16.4944 14.4956C17.1874 14.4956 17.8272 14.4956 18.5736 14.4956C18.5736 15.162 18.5736 15.8284 18.5736 16.6281C17.9338 16.6281 17.2674 16.6281 16.4944 16.6281Z" fill="#9C122A"></path><path d="M21.0525 16.7614C21.0525 15.935 21.0525 15.242 21.0525 14.4956C21.7455 14.4956 22.3853 14.4956 23.1583 14.4956C23.185 15.1354 23.2116 15.7751 23.2649 16.6547C22.4919 16.6814 21.8255 16.7347 21.0525 16.7614Z" fill="#9C122A"></path><path d="M42.6439 33.8214C48.9081 33.8481 53.9994 38.966 53.9727 45.2035C53.9461 51.4943 48.8015 56.5857 42.4573 56.5323C36.2198 56.5057 31.1285 51.3078 31.1818 45.0702C31.2618 38.8061 36.3531 33.7947 42.6439 33.8214ZM36.9395 38.273C34.0873 40.1922 32.7545 44.4305 33.9274 47.3893C39.7117 47.3893 45.5228 47.3893 51.3071 47.3893C52.3467 44.1106 50.9073 39.7923 48.2417 38.3796C48.2417 40.6453 48.2417 42.8311 48.2417 45.0969C47.4687 45.0969 46.8289 45.0969 46.0292 45.0969C46.0292 42.7778 46.0292 40.5387 46.0292 38.273C46.0292 36.487 45.6827 36.1938 43.6568 36.407C43.6568 39.2859 43.6568 42.1914 43.6568 45.0436C42.8572 45.0436 42.2174 45.0436 41.4444 45.0436C41.4444 42.0581 41.4444 39.2059 41.4444 36.3271C39.3652 36.3004 39.152 36.4603 39.152 38.3263C39.152 40.5654 39.152 42.8311 39.152 45.0436C38.299 45.0436 37.6592 45.0436 36.9395 45.0436C36.9395 42.8045 36.9395 40.6453 36.9395 38.273ZM34.7271 49.7884C36.8862 52.9071 39.5785 54.3999 43.0971 54.2133C46.1892 54.0533 48.5882 52.5872 50.3742 49.7884C45.0963 49.7884 40.0583 49.7884 34.7271 49.7884Z" fill="#9C122A"></path></g><defs><clipPath id="clip0_2029_5164"><rect width="67.1199" height="68.2128" fill="white" transform="translate(0.474121 0.794434)"></rect></clipPath></defs></svg>