<svg xmlns="http://www.w3.org/2000/svg" width="78" height="78" viewBox="0 0 78 78" fill="none"><g clip-path="url(#clip0_2029_5155)"><path d="M19.4159 31.1492C19.4159 30.4016 19.4159 29.8409 19.4159 29.2802C19.4159 21.4304 19.4159 13.6117 19.4159 5.76192C19.4159 2.39772 21.1291 0.65332 24.4622 0.65332C35.5204 0.65332 46.5786 0.65332 57.6369 0.65332C61.0634 0.65332 62.7455 2.36657 62.7766 5.85537C62.7766 8.28507 62.7766 10.7148 62.7766 13.3937C63.4308 13.3937 63.9915 13.3937 64.521 13.3937C67.8852 13.3937 71.2806 13.3625 74.6448 13.3937C76.4515 13.3937 77.4171 14.2659 77.4483 16.0103C77.4794 19.686 77.4794 23.3928 77.4483 27.0685C77.4171 28.7818 76.4515 29.654 74.6448 29.6851C70.751 29.7163 66.8884 29.6851 62.8701 29.6851C62.8701 30.7442 62.8701 31.7099 62.8701 32.4263C66.2031 33.6723 69.4739 34.8248 72.6823 36.1331C74.489 36.8807 75.0497 38.8743 74.0841 40.5876C73.1496 42.2385 72.1216 43.8895 70.9691 45.4158C69.3804 47.534 67.1065 48.0947 64.5833 47.6275C64.0226 47.534 63.4931 47.3783 62.8078 47.2225C62.8078 47.939 62.8078 48.4997 62.8078 49.0604C62.8078 57.0036 62.8078 64.9469 62.8078 72.8901C62.8078 76.2232 61.0634 77.9676 57.6992 77.9676C46.641 77.9676 35.5827 77.9676 24.5245 77.9676C21.1914 77.9676 19.447 76.2232 19.447 72.8901C19.447 69.0587 19.447 65.2272 19.447 61.2089C18.7306 61.2089 18.1699 61.2089 17.6092 61.2089C13.0301 61.2089 8.48222 61.2089 3.90317 61.2089C1.56692 61.1466 0.663574 60.2744 0.663574 57.9693C0.663574 50.0883 0.663574 42.2074 0.663574 34.2953C0.663574 31.9902 1.56692 31.1492 3.90317 31.1492C8.98062 31.1492 14.0581 31.1492 19.4159 31.1492ZM21.9079 61.1777C21.9079 65.1026 21.9079 68.8406 21.9079 72.5475C21.9079 74.8526 22.4686 75.4133 24.7114 75.4133C35.6139 75.4133 46.5163 75.4133 57.4188 75.4133C59.6616 75.4133 60.2535 74.8214 60.2535 72.5475C60.2535 64.2927 60.2223 56.038 60.2846 47.7832C60.2846 46.5684 59.8485 46.1323 58.8206 45.665C47.5131 40.5876 40.0372 32.146 36.7353 20.1221C35.8631 16.9136 36.8599 14.4528 39.6322 12.6149C40.7536 11.8673 41.9062 11.1509 43.0276 10.4344C45.3638 9.00151 47.3885 9.65566 48.3853 12.1788C49.0083 13.7675 49.4756 15.4496 50.2232 16.9759C51.6249 19.7483 51.6561 22.2714 49.5067 24.7011C49.2264 25.0126 49.1329 25.8537 49.351 26.1963C51.5626 29.7163 54.4596 32.6132 57.9484 34.856C58.8206 35.4167 60.16 34.6691 60.2223 33.6412C60.2846 32.364 60.2535 31.0869 60.2535 29.6851C59.1321 29.6851 58.2287 29.7163 57.2942 29.6851C55.4564 29.654 54.4596 28.7818 54.4284 26.9439C54.3661 23.3617 54.3661 19.7794 54.4284 16.1972C54.4596 14.3282 55.3941 13.456 57.2631 13.4248C58.2287 13.3937 59.1944 13.4248 60.2535 13.4248C60.2535 10.4967 60.2846 7.81782 60.2223 5.13892C60.1912 3.92407 59.4124 3.26992 58.1976 3.23877C56.6401 3.20762 55.0826 3.23877 53.5251 3.23877C53.1513 4.42247 52.7463 5.48157 52.4348 6.57182C52.1545 7.53747 51.6249 8.03587 50.5658 8.03587C44.2424 8.00472 37.919 8.00472 31.5644 8.03587C30.5676 8.03587 30.038 7.59977 29.7577 6.69642C29.415 5.57502 29.0412 4.45362 28.6363 3.23877C27.328 3.23877 26.1131 3.23877 24.8671 3.23877C22.4686 3.23877 21.9079 3.76832 21.9079 6.13572C21.9079 13.9855 21.9079 21.8042 21.9079 29.654C21.9079 30.1524 21.9702 30.6508 22.0013 31.2426C27.1722 31.2426 32.1874 31.2426 37.2025 31.2426C39.788 31.2426 40.629 32.0837 40.629 34.7002C40.629 42.332 40.629 49.9637 40.629 57.5955C40.629 60.4924 39.8814 61.24 36.9533 61.24C32.0005 61.1777 27.0788 61.1777 21.9079 61.1777ZM38.0124 58.5923C38.0124 50.1818 38.0124 41.9582 38.0124 33.7658C26.3623 33.7658 14.8057 33.7658 3.28017 33.7658C3.28017 42.1139 3.28017 50.3375 3.28017 58.5923C14.8991 58.5923 26.4246 58.5923 38.0124 58.5923ZM65.2375 45.1978C67.3557 45.3224 68.4459 44.6682 69.2247 43.5157C70.0346 42.3008 70.7822 41.0548 71.5921 39.8711C72.2774 38.8743 71.9036 38.4071 70.9068 38.0333C69.3493 37.4726 67.7295 37.0053 66.2654 36.2577C64.2407 35.2298 62.5274 35.2921 60.783 36.8184C59.4124 38.0021 57.8861 37.8464 56.3597 36.8184C52.7463 34.3887 49.7248 31.3672 47.2951 27.7227C46.3606 26.3209 46.2983 24.9192 47.264 23.5174C47.6689 22.9256 48.1361 22.3337 48.4165 21.6796C48.6345 21.15 48.7903 20.4647 48.6345 19.9663C47.8558 17.6612 46.9524 15.3873 46.1114 13.1133C45.7376 12.1165 45.1769 11.9919 44.3359 12.5838C43.3391 13.2691 42.3423 13.8609 41.3143 14.5151C39.0092 16.0103 38.4797 17.2563 39.2584 19.904C42.6538 31.5541 50.0674 39.5285 61.3126 43.9518C62.8078 44.5748 64.3653 44.9174 65.2375 45.1978ZM59.1009 15.948C61.5618 18.0973 63.7111 19.9975 65.9539 21.9599C68.1967 19.9975 70.3461 18.0662 72.8069 15.948C68.1033 15.948 63.8357 15.948 59.1009 15.948ZM31.4709 3.20762C31.4398 4.92087 32.1874 5.51272 33.9006 5.48157C38.6666 5.35697 43.4325 5.35697 48.1673 5.48157C49.8805 5.51272 50.6281 4.95202 50.6281 3.20762C44.2735 3.20762 37.8878 3.20762 31.4709 3.20762ZM72.5266 27.1308C71.1248 26.0094 70.0034 25.1684 68.9755 24.265C68.3213 23.7043 67.7918 23.5486 67.1688 24.265C66.39 25.1061 65.5801 25.0749 64.7702 24.265C64.521 24.0158 64.2095 23.8289 63.8669 23.5797C62.4651 24.7011 61.0945 25.7914 59.4436 27.1308C63.9292 27.1308 67.9787 27.1308 72.5266 27.1308ZM57.045 17.4743C57.045 20.4024 57.045 22.9256 57.045 25.7291C58.7894 24.3585 60.3158 23.1436 61.9667 21.8042C60.3158 20.3401 58.7894 19.0007 57.045 17.4743ZM74.9251 17.412C73.0561 19.063 71.5609 20.4024 69.91 21.8353C71.5921 23.1748 73.1184 24.3896 74.8317 25.7291C74.8628 25.1684 74.9251 24.8569 74.9251 24.5765C74.9251 22.3337 74.9251 20.0598 74.9251 17.412Z" fill="#9C122A"></path><path d="M41.2209 72.5788C40.193 72.5788 39.1339 72.6411 38.1059 72.5788C36.2369 72.4542 34.8975 71.0213 34.8975 69.2457C34.8975 67.439 36.1746 65.9438 38.0748 65.8504C40.0995 65.7569 42.1243 65.7569 44.149 65.8504C46.0492 65.9438 47.3263 67.439 47.2952 69.2457C47.264 71.0524 45.9246 72.4542 44.0556 72.5788C43.0899 72.6411 42.1554 72.5788 41.2209 72.5788ZM41.1586 68.3112C40.2864 68.3112 39.3831 68.2178 38.542 68.3424C38.1371 68.4047 37.8256 68.8719 37.4518 69.1523C37.7944 69.4638 38.1059 69.9933 38.4797 70.0245C40.2241 70.1179 41.9997 70.1179 43.7441 70.0245C44.0867 69.9933 44.3982 69.4326 44.7409 69.1211C44.3671 68.8408 44.0244 68.3735 43.6506 68.3112C42.8096 68.2178 41.9685 68.3112 41.1586 68.3112Z" fill="#9C122A"></path><path d="M17.6091 46.2571C20.1011 47.6589 21.9078 49.6213 22.6554 52.4248C23.2161 54.6365 22.8423 55.1972 20.6307 55.1972C15.8647 55.1972 11.0676 55.1972 6.30168 55.1972C4.24578 55.1972 3.84083 54.6365 4.37038 52.6117C5.02453 49.9328 6.17708 48.4999 9.41668 46.1948C7.60998 42.6126 7.85918 40.1206 10.2266 38.2516C12.2513 36.6629 14.9925 36.6941 16.9861 38.345C19.2289 40.214 19.447 42.7995 17.6091 46.2571ZM19.9765 52.6429C19.042 49.6525 16.4877 47.8769 13.3416 47.9392C10.3512 48.0015 7.79688 49.9017 7.11158 52.6429C11.3791 52.6429 15.6155 52.6429 19.9765 52.6429ZM16.3631 42.488C16.3631 40.8993 15.1171 39.6222 13.5596 39.591C12.0021 39.5599 10.6938 40.837 10.6627 42.3945C10.6315 44.0455 11.9398 45.3849 13.5596 45.3538C15.1483 45.3849 16.3631 44.1078 16.3631 42.488Z" fill="#9C122A"></path><path d="M30.5052 50.4621C31.8446 50.4621 33.2152 50.3375 34.5235 50.5244C35.0531 50.5867 35.5203 51.272 35.9876 51.6769C35.5203 52.113 35.0531 52.8606 34.5547 52.8918C31.8135 53.0164 29.0723 53.0164 26.3622 52.8918C25.8638 52.8606 25.3654 52.113 24.8982 51.7081C25.3654 51.3031 25.8327 50.5867 26.3622 50.5244C27.7328 50.3686 29.1346 50.4621 30.5052 50.4621Z" fill="#9C122A"></path><path d="M30.474 47.4093C29.0723 47.4093 27.6705 47.5339 26.2999 47.347C25.8015 47.2847 25.3654 46.5371 24.8982 46.101C25.3654 45.696 25.8015 44.9796 26.2688 44.9484C29.0411 44.8238 31.8446 44.8238 34.617 44.9484C35.0842 44.9796 35.5515 45.7583 36.0187 46.1944C35.5203 46.5994 35.0531 47.2535 34.4924 47.3158C33.1841 47.5027 31.8135 47.4093 30.474 47.4093Z" fill="#9C122A"></path><path d="M30.3183 41.8336C29.01 41.8336 27.7017 41.9582 26.4245 41.7713C25.8638 41.709 25.0228 41.1172 24.9293 40.6499C24.7424 39.7154 25.5212 39.3105 26.4245 39.3105C29.1346 39.3105 31.8135 39.2482 34.5235 39.3728C35.0219 39.4039 35.4892 40.1827 35.9876 40.5876C35.4892 40.9926 35.0531 41.6779 34.4924 41.7402C33.1529 41.9582 31.72 41.8336 30.3183 41.8336Z" fill="#9C122A"></path></g><defs><clipPath id="clip0_2029_5155"><rect width="76.7847" height="77.252" fill="white" transform="translate(0.663574 0.65332)"></rect></clipPath></defs></svg>