<svg xmlns="http://www.w3.org/2000/svg" width="90" height="89" viewBox="0 0 90 89" fill="none"><g clip-path="url(#clip0_2029_5190)"><path d="M65.8251 44.6322C65.8251 44.8169 65.8251 45.0015 65.8251 45.1861C65.8251 48.8785 65.8251 48.8785 62.1697 49.3585C59.9542 49.6539 59.1788 51.3893 60.5081 53.1986C60.9143 53.7524 61.3204 54.2694 61.7266 54.8232C62.4281 55.7463 62.3912 56.6325 61.542 57.4448C60.6189 58.331 59.6958 59.2541 58.8096 60.1772C56.8526 62.1341 56.7419 62.1341 54.5264 60.5095C53.5295 59.8079 52.6064 58.5156 51.2033 59.6972C50.6864 60.1033 50.2433 60.6941 50.0217 61.2849C49.7633 61.9495 49.7264 62.7249 49.6525 63.4634C49.5417 64.7188 48.914 65.3465 47.6217 65.3096C45.9601 65.2727 44.2986 65.2727 42.637 65.3096C41.4554 65.3096 40.7908 64.7926 40.68 63.6111C40.6062 62.8357 40.4585 62.0234 40.3477 61.248C40.0892 59.6602 38.1692 58.7371 36.9507 59.7341C32.9629 62.9834 33.3322 61.9495 30.3044 59.0325C29.9352 58.7002 29.6398 58.2941 29.2706 57.9987C27.7567 56.8171 27.7936 55.5986 29.049 54.2694C29.4552 53.8263 29.8244 53.3093 30.1567 52.7924C30.9691 51.5739 30.1198 49.7277 28.6798 49.4693C27.8305 49.3216 26.8705 49.4323 26.169 49.0262C25.5043 48.6939 24.692 47.9185 24.6182 47.2169C24.3966 45.5184 24.5443 43.783 24.5443 42.0476C24.5443 40.8291 25.0982 40.2383 26.2797 40.1275C27.129 40.0537 27.9782 39.906 28.8275 39.7583C30.1198 39.5368 30.9321 37.6167 30.2306 36.509C27.7567 32.7059 27.7567 32.7059 31.006 29.4566C31.4121 29.0504 31.8183 28.6812 32.1875 28.275C33.0368 27.315 33.9599 27.2781 34.9568 28.0535C35.5845 28.5335 36.2122 29.0504 36.8769 29.4935C38.1692 30.4166 40.0892 29.6412 40.3108 28.0535C40.9385 23.4011 40.6431 23.9549 45.1478 23.918C45.3324 23.918 45.517 23.918 45.7017 23.918C49.431 23.918 49.431 23.918 49.911 27.7211C50.1694 29.7889 52.0156 30.5274 53.7141 29.2719C54.1572 28.9396 54.6372 28.6442 55.0434 28.275C56.1511 27.2781 57.185 27.2781 58.2188 28.4227C59.2158 29.5304 60.2496 30.5643 61.3573 31.5612C62.4281 32.5582 62.4651 33.5182 61.542 34.6259C61.062 35.1798 60.6189 35.7705 60.2127 36.3982C59.3265 37.6906 60.1389 39.5737 61.7266 39.7952C66.379 40.386 65.7513 40.1275 65.8251 44.6322ZM27.4982 46.3677C30.009 46.4784 31.8552 46.7369 33.0737 49.58C34.3291 52.5339 32.8891 54.0109 31.7075 55.5617C32.4829 56.5217 33.1476 57.371 33.8491 58.2571C35.7692 56.7802 37.1723 55.414 40.0892 56.6325C43.0431 57.851 43.1539 59.8449 43.4493 62.1711C44.6678 62.1711 45.7386 62.1711 46.9201 62.1711C47.0309 59.7341 47.2894 57.851 50.1325 56.6694C53.0864 55.414 54.5634 56.854 56.2619 58.1464C57.185 57.334 57.9973 56.6325 58.8096 55.894C57.3327 53.974 55.9665 52.5709 57.185 49.6539C58.4034 46.7369 60.3973 46.5892 62.7235 46.2938C62.7235 45.0753 62.7235 44.0045 62.7235 42.823C60.2866 42.6753 58.4034 42.4537 57.2219 39.6106C55.9665 36.6567 57.4065 35.1798 58.6988 33.5182C57.8865 32.5951 57.185 31.7828 56.4465 30.9335C54.5264 32.4105 53.1233 33.7766 50.2064 32.5582C47.2525 31.3397 47.1417 29.3458 46.8463 27.0196C45.6278 27.0196 44.557 27.0196 43.3755 27.0196C43.2647 29.4935 43.0062 31.3397 40.1631 32.5212C37.2092 33.7767 35.7322 32.3366 34.1814 31.1551C33.2214 31.9305 32.3722 32.5951 31.486 33.3336C32.9999 35.2536 34.3291 36.6567 33.1476 39.5737C31.9291 42.5276 29.9352 42.6384 27.5721 42.9338C27.4982 44.0784 27.4982 45.0753 27.4982 46.3677Z" fill="#9C122A"></path><path d="M76.3852 46.0725C77.8991 47.8817 79.1545 49.3956 80.5945 51.131C81.9976 49.4325 83.2899 47.9187 84.7669 46.1463C82.8838 46.2202 82.1084 45.5925 82.0345 43.8201C81.1483 28.1275 73.542 16.9765 59.2156 10.441C58.9202 10.3302 58.6618 10.1825 58.3664 10.0718C58.3294 10.0348 58.2925 9.99792 58.0341 9.73945C58.2925 9.0379 58.5879 8.18865 58.9941 7.15479C66.6004 10.0348 72.6928 14.6503 77.3821 21.112C82.1084 27.5736 84.5823 34.8846 85.0623 43.0816C85.9115 43.0816 86.7238 42.9709 87.4623 43.1186C88.1269 43.2663 88.9393 43.5616 89.2347 44.0417C89.4562 44.4109 89.1608 45.3709 88.8285 45.814C86.6131 48.6202 84.2869 51.3156 81.9976 54.048C81.0007 55.2665 80.0406 55.0819 79.1175 53.9742C76.9021 51.2787 74.6128 48.5833 72.4343 45.8509C72.0651 45.4078 71.7328 44.4847 71.9543 44.0786C72.2497 43.5617 73.062 43.2663 73.6897 43.1186C74.3913 42.9709 75.1298 43.0816 76.1636 43.0816C75.0559 30.6752 68.9635 21.8505 57.9602 16.2011C58.1079 15.758 58.2556 15.278 58.4402 14.8719C58.5879 14.4657 58.8095 14.0965 59.0679 13.6164C63.9419 15.795 67.9666 18.8966 71.2897 22.9582C76.1267 28.866 78.6745 35.66 79.0806 43.2663C79.1914 45.0386 78.896 46.3309 76.3852 46.0725Z" fill="#9C122A"></path><path d="M43.6338 13.7641C33.6274 13.321 23.8057 19.9304 16.6794 31.8567C15.904 31.5244 15.0917 31.1552 14.1317 30.7121C16.3102 25.7643 19.4487 21.7396 23.4734 18.4165C29.3812 13.5795 36.1383 10.9948 43.7815 10.6256C46.1815 10.5148 46.3661 10.6994 46.8092 13.1733C48.4339 11.8441 49.9477 10.5517 51.6462 9.11169C49.9477 7.70859 48.4339 6.41625 46.5877 4.90238C46.8831 7.41319 45.5538 7.56089 43.7815 7.67166C28.5689 8.70553 17.6764 16.1641 11.1778 29.9736C10.9193 30.5275 10.6978 31.0814 10.4024 31.7091C9.51619 31.3767 8.70387 31.0814 7.92847 30.786C9.8485 18.5642 25.6519 6.89626 43.6338 4.53314C43.6338 3.72081 43.523 2.87157 43.6707 2.05924C43.7815 1.46846 44.1138 0.729987 44.5569 0.434597C44.9261 0.213054 45.8123 0.397673 46.1815 0.729987C49.0616 3.05619 51.8678 5.41931 54.7109 7.78243C55.7448 8.6686 55.6709 9.5917 54.674 10.404C51.9047 12.7302 49.1354 15.0933 46.2923 17.3457C45.8492 17.678 44.9261 17.8996 44.52 17.6411C44.0769 17.4195 43.8184 16.6072 43.7076 15.9795C43.523 15.3149 43.6338 14.5395 43.6338 13.7641Z" fill="#9C122A"></path><path d="M46.5877 75.6116C59.1049 74.3931 67.8927 68.3007 73.5052 57.2974C74.3544 57.6666 75.1298 58.0358 75.9791 58.4051C75.8683 58.7743 75.8314 59.0697 75.7206 59.3282C69.5174 71.2176 59.7326 77.6055 46.3292 78.5655C44.5569 78.6762 43.3753 78.2701 43.6338 75.8331C41.8615 77.3101 40.3107 78.6024 38.5753 80.0424C40.2368 81.4455 41.7876 82.7009 43.6338 84.2517C43.3384 81.7778 44.6308 81.5932 46.4031 81.4455C61.6157 80.4117 72.5082 72.99 79.0437 59.1805C79.2653 58.7005 79.4868 58.1835 79.7453 57.6666C79.7822 57.6297 79.8561 57.5928 80.0038 57.482C80.373 57.5928 80.853 57.7035 81.2961 57.8881C81.7022 58.0358 82.0715 58.2574 82.4407 58.4051C78.7114 72.03 64.3481 82.5532 46.6616 84.5102C46.6616 85.3595 46.6985 86.2825 46.6616 87.1687C46.5508 88.7564 45.3692 89.3841 44.1507 88.3872C41.2707 86.0979 38.4645 83.6979 35.6213 81.3348C34.5875 80.4855 34.5875 79.5624 35.6213 78.7132C38.3906 76.387 41.1599 74.0238 44.003 71.7715C44.4461 71.4023 45.3323 71.1807 45.7754 71.4023C46.2185 71.6238 46.5139 72.4361 46.6246 73.0269C46.6985 73.8023 46.5877 74.6146 46.5877 75.6116Z" fill="#9C122A"></path><path d="M5.1223 46.0725C4.08843 46.0725 3.16534 46.1463 2.27917 46.0355C0.912985 45.8878 0.359128 44.7063 1.20838 43.6355C3.5715 40.6447 6.04539 37.7277 8.51929 34.8476C9.25776 33.9615 10.1809 34.0722 10.9193 34.9215C13.3563 37.8015 15.7564 40.6447 18.1195 43.5616C19.0426 44.7063 18.4518 45.8878 16.9748 46.0355C16.1256 46.1094 15.2763 46.0355 14.1317 46.0355C15.0917 57.8512 20.7411 66.4544 30.932 72.2514C30.7105 72.7684 30.5259 73.2115 30.3043 73.6176C30.1197 73.9869 29.8612 74.3192 29.5659 74.7992C23.5842 71.6607 18.9318 67.2298 15.6087 61.4328C12.8394 56.5957 11.3993 51.3895 11.1409 45.814C11.067 44.0417 11.4363 42.8601 13.8732 43.1186C12.3963 41.3462 11.104 39.7954 9.66393 38.06C8.26082 39.7216 7.00541 41.2354 5.45461 43.1186C7.92851 42.8232 8.15005 44.1155 8.2239 45.8509C9.11007 60.3989 16.0148 71.033 28.9381 77.79C29.5289 78.0854 30.1197 78.3808 30.8582 78.75C30.4889 79.6362 30.1566 80.3747 29.8243 81.1501C18.4518 79.1562 7.3008 63.3528 5.1223 46.0725Z" fill="#9C122A"></path><path d="M45.0738 35.7337C49.9846 35.6967 54.0093 39.7214 54.0093 44.6323C54.0093 49.4693 50.0215 53.4571 45.2214 53.4571C40.3106 53.494 36.2859 49.4693 36.2859 44.5584C36.2859 39.7214 40.2367 35.7337 45.0738 35.7337ZM45.0738 50.4663C48.2861 50.4663 50.9446 47.8816 51.0185 44.6323C51.0554 41.4199 48.4707 38.7245 45.2584 38.6506C41.9722 38.5768 39.2398 41.2722 39.2398 44.5584C39.2398 47.8077 41.8614 50.4663 45.0738 50.4663Z" fill="#9C122A"></path></g><defs><clipPath id="clip0_2029_5190"><rect width="88.5063" height="88.5063" fill="white" transform="translate(0.802246 0.397461)"></rect></clipPath></defs></svg>