<svg xmlns="http://www.w3.org/2000/svg" width="709" height="380" viewBox="0 0 709 380" fill="none"><g filter="url(#filter0_d_2029_4663)"><g clip-path="url(#clip0_2029_4663)"><path d="M657.324 332.624H58.6053C58.6053 332.624 58.0289 322.523 57.8368 313.438C56.9859 267.628 67.718 217.92 97.6086 183.637C120.994 156.848 157.802 137.223 215.579 137.8C227.19 137.909 237.977 137.607 248.05 136.949H248.077C251.152 136.757 254.143 136.509 257.08 136.235H257.108C323.861 130.087 357.292 107.223 387.704 84.8802C402.389 74.0932 416.113 63.6631 432.499 55.1543C451.52 45.3005 474 38.1366 505.098 36.5995C521.1 35.8036 536.334 39.756 548.96 49.3628C572.263 67.0666 583.846 101.706 577.78 144.963C573.663 174.25 582.94 190.142 598.833 200.518C642.776 229.256 700.966 226.127 657.324 332.624Z" fill="#FCECDB"></path><path d="M410.047 216.053V202.686H406.918V179.712H390.12V202.686H374.392V165.22H357.072V189.539H353.093V160.526H335.773V214.955H313.842V246.685H305.635V232.577H286.806V240.921H276.019V203.51H262.652V231.204H249.312V332.679H262.652H274.098H276.019H286.806H292.927H302.698H305.635H313.842H321.528H335.773H340.11H348.783H353.093H357.072H366.13H372.306H374.392H390.12H406.643H406.918H410.047H423.441V216.053H410.047Z" fill="#EFDECE"></path><path d="M643.079 262.028V332.679H430.001V251.983H442.874V235.212H455.775V277.097H466.233V272.019H484.43V280.583H492.335V261.342H513.525V228.377H530.296V245.944H534.111V231.232H550.854V253.931H566.06V239.988H627.104V253.931H630.123V262.028H643.079Z" fill="#EFDECE"></path><path d="M251.014 234.333V332.322H97.6086V247.042H109.356V223.766H121.131V255.221H130.656V248.194H147.234V260.079H154.453V233.4H173.776V187.645H189.037V212.046H192.523V191.597H207.812V223.08H221.645V203.756H236.467V223.08H239.212V234.333H251.014Z" fill="#EFDECE"></path><path d="M432.499 55.1816V332.047H423.469V60.2046C426.378 58.4479 429.397 56.7736 432.499 55.1816Z" fill="#DDC7B6"></path><path d="M257.108 136.235V328.122V332.047H248.077V328.122V136.949L257.108 136.235Z" fill="#DDC7B6"></path><path d="M525.053 139.419V140.901C525.053 140.901 524.641 145.512 530.323 146.199C536.005 146.885 540.671 146.775 540.506 143.234C539.985 140.489 539.079 136.208 539.051 133.902C539.024 133.051 539.106 132.145 539.243 131.13L528.237 130.91L524.998 131.432L525.053 139.419Z" fill="#FFB27D"></path><path d="M524.998 131.432L525.053 139.419C526.233 139.968 527.551 140.297 529.033 140.297C534.083 140.297 537.377 136.592 539.079 133.902C539.051 133.051 539.134 132.145 539.271 131.13L528.264 130.91L524.998 131.432Z" fill="#E2915A"></path><path d="M540.122 129.373C538.832 136.263 529.966 136.016 526.123 135.604C525.053 135.494 524.367 135.357 524.367 135.357C523.159 135.028 522.473 133.106 522.143 130.608C521.512 125.64 522.308 118.339 523.159 116.473C524.421 113.673 526.809 110.626 535.73 112.822C544.678 114.991 541.741 120.563 540.122 129.373Z" fill="#FFB27D"></path><path d="M547.368 332.981H534.797C534.879 332.322 535.209 330.318 535.812 328.479C536.005 327.848 536.252 327.217 536.526 326.668C537.761 324.225 545.529 325.789 545.529 325.789C545.529 325.789 546.243 326.421 546.819 328.781C547.039 329.797 547.258 331.169 547.368 332.981Z" fill="#233862"></path><path d="M509.38 329.001C509.353 330.703 509.133 332.322 508.502 332.981H483.634C483.964 332.075 484.842 330.73 487.395 330.318C490.304 329.852 494.806 328.452 497.468 325.652C498.401 324.664 499.115 323.484 499.417 322.112C500.597 316.897 509.106 323.704 509.106 323.704C509.106 323.704 509.435 326.476 509.38 329.001Z" fill="#233862"></path><path d="M525.931 272.705C525.575 274.627 525.355 276.191 525.3 277.289C524.504 292.715 512.317 327.985 510.149 328.809C506.773 330.071 501.448 327.381 498.676 326.503C497.523 326.146 496.754 324.966 497.001 323.786C503.04 296.036 505.263 256.072 506.059 232.385C506.471 220.472 508.502 212.238 508.502 212.238C508.502 212.238 538.228 204.306 538.42 214.351C538.585 223.217 528.566 258.048 525.931 272.705Z" fill="#2B478B"></path><path d="M525.931 272.705L506.059 232.385C506.471 220.472 508.502 212.238 508.502 212.238C508.502 212.238 538.228 204.306 538.42 214.351C538.585 223.217 528.566 258.048 525.931 272.705Z" fill="#233862"></path><path d="M519.289 214.379L535.016 328.315C535.016 328.315 541.933 329.989 547.286 328.644C547.286 328.644 551.897 268.039 551.512 253.41C551.128 238.78 554.806 214.214 550.662 211.497C546.517 208.78 519.289 214.379 519.289 214.379Z" fill="#2B478B"></path><path d="M520.414 109.885C520.414 109.885 524.339 109.583 528.978 107.552C532.738 105.905 537.487 107.717 539.024 108.54C538.969 108.293 538.887 107.964 538.64 107.607C538.64 107.607 539.326 108.101 539.436 108.787C539.518 108.842 539.545 108.87 539.518 108.897C539.518 108.897 540.314 108.76 540.808 108.979C540.808 108.979 540.451 108.924 540.341 109.144C540.341 109.171 540.314 109.199 540.287 109.199C546.16 112.026 546.709 121.331 544.815 123.472C542.537 126.052 539.82 131.871 539.82 131.871C539.82 131.871 538.832 130.498 539.244 128.22C539.655 125.942 537.706 125.942 535.209 124.899C532.738 123.856 534.797 120.974 532.629 119.217C530.46 117.461 522.5 118.504 522.61 117.159C519.646 116.116 520.414 110.187 520.414 109.885Z" fill="#233862"></path><path d="M541.878 145.21L538.255 222.86C538.255 222.86 508.035 223.354 508.914 216.52C509.764 209.685 519.81 147.571 519.81 147.571L541.878 145.21Z" fill="#E9F3FE"></path><path d="M552.665 189.209C550.881 194.589 554.257 212.705 555.465 218.826C555.739 220.116 555.904 220.884 555.904 220.884C551.732 227.691 536.389 227.609 536.389 227.609C533.452 214.599 531.915 193.848 531.915 193.848L543.662 142.329L558.457 155.998C558.457 155.998 557.331 164.342 555.959 172.823C554.861 179.52 553.626 186.355 552.665 189.209Z" fill="#22407A"></path><path d="M527.523 130.498C527.523 130.498 527.249 131.377 524.998 131.075C524.998 131.075 523.131 130.8 523.269 129.812C523.241 129.785 525.135 129.236 527.523 130.498Z" fill="white"></path><path d="M510.533 146.309C510.533 146.309 510.533 146.309 510.533 146.336C509.819 147.022 489.645 166.62 485.748 174.278C481.768 182.046 503.918 197.554 503.918 197.554C503.918 197.554 505.345 198.13 506.333 197.883C505.29 206.474 504.11 214.406 504.824 217.81C506.086 223.931 511.741 225.989 511.741 225.523C511.741 225.386 513.799 203.263 514.925 191.735C517.34 167.004 524.394 142.466 524.394 142.466C517.807 143.152 510.533 146.309 510.533 146.309ZM498.538 177.626C498.511 177.599 498.511 177.544 498.511 177.517C498.511 176.391 502.793 173.921 507.404 171.012C507.459 170.957 507.486 170.929 507.486 170.929C507.404 173.317 507.404 175.65 507.541 177.819C507.816 181.853 507.514 186.684 507.02 191.597C504.851 188.139 498.977 178.916 498.538 177.626Z" fill="#22407A"></path><path d="M542.729 142.219C542.757 141.477 539.244 140.462 539.244 140.462C539.244 140.462 535.236 146.034 528.594 146.116C528.594 146.116 530.488 149.794 532.711 150.727C532.738 150.755 542.51 146.61 542.729 142.219Z" fill="#D9E9F9"></path><path d="M528.621 145.979C528.621 145.979 525.108 143.893 525.108 141.642C525.108 141.642 522.829 141.368 521.841 142.466C521.841 142.466 521.018 146.336 522.116 148.559C522.116 148.587 527.166 147.818 528.621 145.979Z" fill="#D9E9F9"></path><path d="M531.009 145.649L526.261 144.497C526.261 144.497 525.629 144.551 525.657 145.32C525.684 146.089 527.002 148.367 527.578 148.531C528.155 148.751 532.135 147.214 531.009 145.649Z" fill="#BA4C43"></path><path d="M542.18 141.834C542.208 141.093 539.847 139.556 539.847 139.556C539.847 139.556 535.236 144.936 528.621 145.018C528.621 145.018 530.515 148.696 532.738 149.629C532.738 149.657 541.961 146.226 542.18 141.834Z" fill="#E9F3FE"></path><path d="M528.621 145.046C528.621 145.046 525.08 143.179 525.053 140.901C525.053 140.901 522.912 141.834 521.924 142.932C521.924 142.932 521.018 145.375 522.116 147.626C522.116 147.626 527.166 146.857 528.621 145.046Z" fill="#E9F3FE"></path><path d="M519.316 198.596C519.481 200.408 520.304 202.11 521.649 203.345L523.763 205.294C524.284 205.788 525.135 205.705 525.574 205.156L528.182 201.835C528.868 200.957 529.198 199.831 529.115 198.706C528.868 196.208 528.429 191.378 528.045 186.711C527.743 182.924 527.523 179.273 527.496 177.022C527.441 169.886 528.841 147.159 528.841 147.159L527.139 147.242C527.139 147.242 522.885 156.052 520.661 168.074C520.112 171.039 519.701 174.168 519.481 177.434C519.481 177.434 518.603 190.417 519.316 198.596Z" fill="#C65447"></path><path d="M519.316 198.597C519.481 200.408 520.304 202.11 521.649 203.345L523.763 205.294C524.284 205.788 525.135 205.706 525.574 205.157L528.182 201.835C528.868 200.957 529.198 199.832 529.115 198.706C528.868 196.209 528.429 191.378 528.045 186.712C523.324 181.414 521.402 174.086 520.661 168.102C520.112 171.066 519.701 174.195 519.481 177.462C519.481 177.434 518.603 190.417 519.316 198.597Z" fill="#BA4C43"></path><path d="M502.518 198.816C502.518 196.84 504.248 195.248 506.224 195.55C506.773 195.632 507.267 195.852 507.596 196.318C508.941 198.102 510.231 203.317 507.843 203.564C506.883 203.674 505.62 202.988 504.659 202.247C503.671 201.506 502.518 200.353 502.518 199.118V198.816Z" fill="#FFB27D"></path><path d="M555.465 218.825C551.128 214.324 543.663 205.458 543.91 198.185C544.266 188.001 555.959 172.823 555.959 172.823C554.861 179.547 553.626 186.382 552.665 189.237C550.854 194.616 554.257 212.704 555.465 218.825Z" fill="#233862"></path><path d="M555.328 201.094C555.328 201.094 552.226 202.659 550.332 201.863C548.438 201.067 546.215 200.49 544.102 202.906C541.988 205.321 541.549 206.968 541.988 207.874C542.427 208.78 547.368 208.423 548.164 207.874C548.987 207.325 550.277 205.952 551.101 206.2C553.352 206.858 555.273 205.129 556.343 203.757C556.975 202.933 555.245 202.522 555.328 201.094Z" fill="#FFB27D"></path><path d="M543.662 142.301C543.662 142.301 556.069 143.673 558.978 149.08C561.915 154.488 577.121 176.363 576.6 185.476C576.106 194.561 555.849 204.772 555.849 204.772C555.849 204.772 551.375 202.878 551.293 200.847C551.211 198.816 565.291 186.629 564.44 184.351C563.59 182.073 548.109 164.094 546.599 158.166C545.145 152.209 543.662 142.301 543.662 142.301Z" fill="#22407A"></path><path d="M507.486 170.929C507.486 170.929 507.459 170.956 507.404 171.011C502.765 173.921 498.511 176.391 498.511 177.517C497.88 175.54 503.891 167.306 505.839 165.604C507.816 163.902 507.486 170.929 507.486 170.929Z" fill="#233862"></path><path d="M539.847 139.556C539.847 139.556 530.433 178.999 531.942 193.848C531.942 193.848 535.401 177.983 543.745 164.973C543.745 164.973 540.698 162.31 540.863 161.322C540.863 161.322 543.113 160.663 545.309 161.103C545.309 161.103 545.062 144.112 543.69 142.301C542.318 140.517 539.847 139.556 539.847 139.556Z" fill="#233862"></path><path d="M525.053 140.901C525.245 140.791 515.721 179.438 514.925 191.734C514.925 191.734 515.858 169.749 515.775 163.436C515.775 163.436 519.673 161.377 519.673 160.636C519.673 159.922 515.501 157.946 515.501 157.946C515.501 157.946 518.136 144.414 519.591 142.932C521.045 141.45 525.053 140.901 525.053 140.901Z" fill="#233862"></path><path d="M607.396 141.752C607.396 141.752 593.069 141.642 589.61 146.473C586.152 151.303 578.604 177.351 582.529 186.025C586.481 194.698 593.865 182.429 597.954 177.132C602.071 171.807 607.396 141.752 607.396 141.752Z" fill="#22407A"></path><path d="M607.259 139.556V141.038C607.259 141.038 606.847 145.677 612.556 146.363C618.266 147.05 622.602 144.552 622.438 140.984C621.916 138.211 621.367 136.317 621.312 134.012C621.285 133.161 621.367 132.255 621.504 131.24L610.443 131.02L607.177 131.542L607.259 139.556Z" fill="#FFB27D"></path><path d="M607.204 131.542L607.259 139.556C608.439 140.105 609.757 140.435 611.239 140.435C616.317 140.435 619.611 136.702 621.312 134.012C621.285 133.161 621.367 132.255 621.504 131.24L610.443 131.02L607.204 131.542Z" fill="#E2915A"></path><path d="M622.383 129.455C621.093 136.372 612.2 136.125 608.33 135.713C607.259 135.604 606.573 135.466 606.573 135.466C605.338 135.137 604.679 133.216 604.35 130.69C603.718 125.695 604.514 118.366 605.365 116.5C606.628 113.673 609.016 110.626 617.991 112.822C626.967 115.018 624.03 120.617 622.383 129.455Z" fill="#FFB27D"></path><path d="M617.003 333.035C617.003 333.035 617.524 328.918 618.76 326.448C619.995 324.005 627.79 325.57 627.79 325.57C627.79 325.57 629.354 326.914 629.684 333.145L617.003 333.035Z" fill="#233862"></path><path d="M590.434 332.98C592.273 331.855 591.229 323.511 591.229 323.511C591.229 323.511 582.693 316.676 581.513 321.919C580.333 327.161 573.388 329.495 569.436 330.153C566.719 330.592 565.868 332.102 565.593 333.008H590.434V332.98Z" fill="#233862"></path><path d="M592.739 161.157C592.739 161.157 585.52 176.199 585.657 179.877C585.657 179.877 588.21 177.461 592.739 177.763C597.24 178.093 592.739 161.157 592.739 161.157Z" fill="#233862"></path><path d="M608.33 135.713C607.259 135.604 606.573 135.466 606.573 135.466C605.338 135.137 604.679 133.216 604.35 130.69C606.628 131.267 607.698 133.024 608.137 133.792C608.33 134.094 608.357 134.863 608.33 135.713Z" fill="#E2915A"></path><path d="M602.511 139.611C602.511 139.611 597.515 131.377 601.413 131.02C605.283 130.663 606.847 133.298 607.424 134.259C607.973 135.219 607.287 139.584 607.287 139.584L602.511 139.611Z" fill="#FFB27D"></path><path d="M608.137 272.266C607.78 274.188 607.561 275.752 607.506 276.877C606.71 292.358 594.468 327.793 592.272 328.616C588.896 329.907 583.544 327.189 580.744 326.283C579.592 325.927 578.796 324.746 579.07 323.566C585.136 295.679 587.359 255.551 588.183 231.781C588.594 219.814 590.653 211.552 590.653 211.552C590.653 211.552 620.516 203.592 620.681 213.665C620.846 222.586 610.8 257.554 608.137 272.266Z" fill="#2B478B"></path><path d="M608.137 272.266L588.183 231.781C588.595 219.814 590.653 211.552 590.653 211.552C590.653 211.552 620.516 203.592 620.681 213.665C620.846 222.586 610.8 257.554 608.137 272.266Z" fill="#233862"></path><path d="M601.495 213.693L617.277 328.123C617.277 328.123 624.222 329.797 629.601 328.452C629.601 328.452 634.213 267.6 633.828 252.888C633.444 238.176 637.15 213.528 632.977 210.811C628.833 208.066 601.495 213.693 601.495 213.693Z" fill="#2B478B"></path><path d="M635.283 207.544C635.228 207.05 635.201 206.556 635.146 206.062C635.146 205.925 635.118 205.815 635.118 205.678C635.091 205.294 635.064 204.909 635.036 204.525C635.036 204.415 635.009 204.306 635.009 204.196C634.926 203.235 634.871 202.274 634.816 201.314C634.816 201.204 634.816 201.094 634.789 200.984C634.762 200.6 634.734 200.216 634.707 199.804C634.707 199.722 634.707 199.639 634.679 199.557C634.652 199.09 634.624 198.624 634.597 198.13V198.102C634.569 197.663 634.542 197.224 634.542 196.785C634.542 196.675 634.542 196.565 634.515 196.483C634.487 196.099 634.487 195.742 634.46 195.358C634.46 195.275 634.46 195.193 634.46 195.138C634.432 194.699 634.432 194.26 634.405 193.82C634.405 193.766 634.405 193.711 634.405 193.628C634.377 193.244 634.377 192.887 634.35 192.53C634.35 192.393 634.35 192.283 634.322 192.146C634.322 191.844 634.295 191.515 634.295 191.213C634.295 191.103 634.295 190.966 634.295 190.856C634.295 190.472 634.268 190.115 634.268 189.731C634.268 189.456 634.24 189.154 634.24 188.88C634.24 188.825 634.24 188.77 634.24 188.688C634.185 187.206 634.13 185.751 634.103 184.351C634.103 184.324 634.103 184.296 634.103 184.296C634.075 183.473 634.048 182.649 634.021 181.853C634.021 181.798 634.021 181.743 634.021 181.716C634.021 181.387 633.993 181.057 633.966 180.728C633.966 180.646 633.966 180.563 633.966 180.481C633.938 180.124 633.938 179.795 633.911 179.465C633.911 179.438 633.911 179.41 633.911 179.383C633.883 179.026 633.883 178.669 633.856 178.34C633.856 178.23 633.856 178.12 633.828 178.011C633.801 177.764 633.801 177.517 633.773 177.297C633.773 177.16 633.746 177.05 633.746 176.913C633.719 176.666 633.719 176.419 633.691 176.172C633.691 176.007 633.664 175.87 633.664 175.705C633.636 175.485 633.636 175.293 633.609 175.074C633.609 175.046 633.609 175.019 633.609 174.991C633.581 174.717 633.554 174.415 633.526 174.14C633.526 174.058 633.499 173.976 633.499 173.866C633.472 173.564 633.444 173.29 633.417 172.988C633.526 172.878 633.609 172.768 633.719 172.631C640.553 164.396 644.066 153.747 641.322 149.822C636.82 143.399 622.465 140.956 622.465 140.956C622.465 143.344 617.305 146.308 613.16 146.061C612.474 146.006 611.843 145.869 611.239 145.677C609.894 142.356 608.961 140.16 608.961 140.16C608.961 140.16 607.314 136.784 601.467 138.733C601.467 138.733 601.303 141.697 601.467 146.144C601.467 146.226 601.467 146.308 601.467 146.391C597.021 150.426 591.669 156.574 591.669 162.42C591.669 170.709 591.559 177.681 591.394 183.555C591.229 190.088 590.982 195.248 590.735 199.337C590.022 211.36 589.226 213.912 589.747 213.885C589.747 213.885 594.331 218.057 606.408 217.975C614.011 217.92 620.187 217.096 624.798 216.136C630.974 214.845 634.295 213.363 634.295 213.363C635.667 213.363 635.393 208.807 635.283 207.544Z" fill="#22407A"></path><path d="M602.593 109.912C602.593 109.912 606.545 109.611 611.211 107.579C614.999 105.933 619.775 107.744 621.312 108.567C621.257 108.32 621.175 107.964 620.928 107.634C620.928 107.634 621.614 108.128 621.724 108.815C621.806 108.869 621.834 108.897 621.806 108.924C621.806 108.924 622.602 108.787 623.096 109.007C623.096 109.007 622.74 108.952 622.602 109.171C622.602 109.199 622.575 109.226 622.547 109.226C628.449 112.081 628.998 121.413 627.104 123.554C624.826 126.162 622.081 132.008 622.081 132.008C622.081 132.008 621.093 130.636 621.504 128.33C621.916 126.052 619.94 126.052 617.442 125.009C614.944 123.966 617.03 121.056 614.835 119.3C612.639 117.543 604.651 118.586 604.761 117.214C601.824 116.143 602.593 110.214 602.593 109.912Z" fill="#1C468A"></path><path d="M624.194 184.104C621.861 193.491 596.527 198.349 590.79 199.337C591.037 195.247 591.257 190.087 591.449 183.555L624.194 184.104Z" fill="#233862"></path><path d="M618.622 187.151C618.869 187.151 624.249 186.355 625.21 185.86C626.171 185.366 630.59 179.108 627.708 177.489C624.826 175.869 617.058 182.32 617.058 182.32L618.622 187.151Z" fill="#FFB27D"></path><path d="M585.877 189.017C585.877 189.017 606.71 190.142 620.708 187.151C620.708 187.151 621.065 183.116 616.673 181.304C616.673 181.304 594.88 176.693 589.637 177.983C584.367 179.273 585.877 189.017 585.877 189.017Z" fill="#22407A"></path><path d="M633.719 172.658C629.382 177.873 623.755 182.128 617.497 183.116C604.542 177.269 601.907 157.178 601.468 146.144C601.468 146.144 607.588 168.376 615.96 176.171C617.47 177.571 619.062 178.504 620.681 178.752C620.681 178.752 631.221 175.787 633.417 172.987C633.581 172.795 633.664 172.686 633.719 172.658Z" fill="#233862"></path><path d="M629.409 160.032C629.409 160.032 622.904 168.184 619.034 160.911C619.034 160.938 623.096 164.89 629.409 160.032Z" fill="#233862"></path><path d="M96.1263 292.797C96.1263 292.797 102.631 285.221 96.5381 280.418C96.5381 280.418 92.0915 277.728 88.4684 277.948C88.4684 277.948 93.6011 286.566 91.9543 287.417C90.28 288.268 86.9313 277.399 86.9313 277.399C86.9313 277.399 76.8031 276.411 73.5368 277.975C73.5368 277.975 82.1829 285.057 80.3713 285.468C78.5598 285.88 69.2001 278.936 69.2001 278.936C69.2001 278.936 59.7855 280.528 60.2795 286.292C60.7736 292.028 64.0399 293.812 65.4672 293.675C66.8945 293.511 75.2386 290.327 75.4307 291.507C75.6228 292.687 70.5999 296.502 67.0591 296.667C67.0591 296.667 73.7015 303.996 78.1206 301.882C82.5397 299.769 82.924 296.42 85.6687 295.157C88.4135 293.895 90.774 293.895 89.6212 295.185C88.4959 296.475 83.5004 297.71 81.9358 300.51C80.3713 303.282 78.944 305.176 83.5278 304.49C88.0841 303.803 95.5225 300.455 95.8519 296.64C96.1263 292.797 96.1263 292.797 96.1263 292.797Z" fill="#82B378"></path><path d="M64.8909 286.456C64.8909 286.456 90.4997 285.468 96.1265 292.797C96.1265 292.797 97.3891 296.53 101.232 299.961L101.836 301.607C101.836 301.607 97.389 296.941 95.8245 296.639C95.7971 296.612 98.2948 287.554 64.8909 286.456Z" fill="#82B378"></path><path d="M101.232 299.933C101.232 299.933 106.721 303.995 107.106 311.269L106.118 311.351C106.118 311.351 104.361 303.858 101.204 300.921C98.0204 297.984 101.232 299.933 101.232 299.933Z" fill="#82B378"></path><path d="M118.826 283.273C118.826 283.273 108.505 277.481 113.309 269.631C113.309 269.631 117.151 264.8 121.296 263.565C121.296 263.565 119.1 275.258 121.296 275.532C123.492 275.807 122.806 262.302 122.806 262.302C122.806 262.302 133.675 257.06 137.957 257.472C137.957 257.472 131.205 268.89 133.401 268.615C135.596 268.341 143.172 256.785 143.172 256.785C143.172 256.785 154.316 254.727 156.127 261.342C157.911 267.957 155.029 271.25 153.383 271.662C151.736 272.074 141.141 271.937 141.415 273.309C141.69 274.681 148.854 276.877 152.834 275.642C152.834 275.642 148.414 286.511 142.65 285.962C136.859 285.413 135.075 281.845 131.507 281.543C127.938 281.269 125.303 282.229 127.088 283.19C128.872 284.151 134.938 283.52 137.82 285.962C140.702 288.433 143.062 289.942 137.682 291.04C132.303 292.138 122.668 291.452 120.747 287.335C118.826 283.273 118.826 283.273 118.826 283.273Z" fill="#A8D29F"></path><path d="M151.05 263.428C151.05 263.428 122.147 272.787 118.826 283.245C118.826 283.245 118.963 287.939 116.081 293.291V295.35C116.081 295.35 119.1 288.323 120.775 287.362C120.747 287.39 114.297 278.304 151.05 263.428Z" fill="#82B378"></path><path d="M116.081 293.319C116.081 293.319 111.635 300.098 114.16 308.333L115.313 308.031C115.313 308.031 114.187 298.945 116.52 294.389C118.853 289.805 116.081 293.319 116.081 293.319Z" fill="#82B378"></path><path d="M102.412 275.285C102.412 275.285 116.026 267.655 109.686 257.307C109.686 257.307 104.608 250.967 99.1457 249.32C99.1457 249.32 102.055 264.745 99.1457 265.102C96.2362 265.459 97.142 247.673 97.142 247.673C97.142 247.673 82.8143 240.783 77.1875 241.332C77.1875 241.332 86.0806 256.401 83.1711 256.044C80.2616 255.688 70.2981 240.427 70.2981 240.427C70.2981 240.427 55.5861 237.709 53.2256 246.41C50.865 255.111 54.6803 259.475 56.8487 260.024C59.017 260.573 73.0154 260.381 72.6311 262.193C72.2743 264.004 62.8323 266.914 57.5623 265.267C57.5623 265.267 63.3812 279.595 70.9843 278.881C78.6147 278.167 80.9753 273.446 85.6963 273.062C90.4173 272.678 93.8757 273.968 91.5152 275.23C89.1547 276.493 81.1674 275.642 77.3522 278.881C73.5369 282.12 70.4628 284.123 77.5443 285.578C84.6258 287.033 97.3341 286.127 99.8593 280.665C102.412 275.285 102.412 275.285 102.412 275.285Z" fill="#A8D29F"></path><path d="M59.9229 249.155C59.9229 249.155 98.0478 261.506 102.385 275.285C102.385 275.285 102.192 281.461 106.008 288.542V291.26C106.008 291.26 102.028 282.01 99.8319 280.72C99.8594 280.72 108.396 268.753 59.9229 249.155Z" fill="#82B378"></path><path d="M106.035 288.543C106.035 288.543 111.909 297.463 108.56 308.332L107.051 307.921C107.051 307.921 108.506 295.954 105.431 289.942C102.357 283.931 106.035 288.543 106.035 288.543Z" fill="#82B378"></path><path d="M102.851 331.883C88.1118 331.883 76.1995 319.943 76.1995 305.231H129.531C129.531 319.943 117.591 331.883 102.851 331.883Z" fill="#F1A34F"></path><path d="M109.795 331.691C108.698 331.828 107.6 331.883 106.474 331.883C91.7348 331.883 79.8225 319.943 79.8225 305.231H86.4374C86.4649 318.818 96.648 330.044 109.795 331.691Z" fill="#FFB973"></path><path d="M75.8152 333.255H129.887C129.887 331.444 128.405 329.961 126.594 329.961H79.1089C77.2974 329.961 75.8152 331.416 75.8152 333.255Z" fill="#F1A34F"></path><path d="M75.5835 306.032H130.397V305.208H75.5835V306.032Z" fill="#D86713"></path><path d="M149.595 79.8848H442.792C447.074 79.8848 450.532 83.3432 450.532 87.625V255.853C450.532 260.134 447.074 263.593 442.792 263.593H149.595C145.313 263.593 141.854 260.134 141.854 255.853V87.625C141.854 83.3432 145.313 79.8848 149.595 79.8848Z" fill="#F1F2F2"></path><path d="M164.16 255.833L323.303 255.833V148.32H164.16V255.833Z" fill="#F3F9FF"></path><path d="M316.752 203.18C316.752 203.18 289.578 199.804 272.973 215.092C256.367 230.381 225.433 216.437 212.972 215.092C191.315 212.732 174.353 219.813 169.302 227.609V250.967H316.724V203.18H316.752Z" fill="#A6C7F9"></path><path d="M294.557 202.062H295.682V165.583H294.557V202.062Z" fill="#A6C7F9"></path><path d="M249.875 217.723H251V181.245H249.875V217.723Z" fill="#A6C7F9"></path><path d="M203.776 209.45H204.901V172.972H203.776V209.45Z" fill="#A6C7F9"></path><path d="M281.838 171.176H290.567C291.088 171.176 291.527 170.737 291.527 170.215C291.527 169.694 291.088 169.254 290.567 169.254H281.838C281.317 169.254 280.877 169.694 280.877 170.215C280.877 170.737 281.317 171.176 281.838 171.176Z" fill="#A6C7F9"></path><path d="M281.838 174.58H290.567C291.088 174.58 291.527 174.14 291.527 173.619C291.527 173.097 291.088 172.658 290.567 172.658H281.838C281.317 172.658 280.877 173.097 280.877 173.619C280.877 174.168 281.317 174.58 281.838 174.58Z" fill="#A6C7F9"></path><path d="M237.812 189.758H246.54C247.062 189.758 247.501 189.319 247.501 188.798C247.501 188.276 247.062 187.837 246.54 187.837H237.812C237.29 187.837 236.851 188.276 236.851 188.798C236.851 189.347 237.29 189.758 237.812 189.758Z" fill="#A6C7F9"></path><path d="M237.812 193.107H246.54C247.062 193.107 247.501 192.668 247.501 192.146C247.501 191.625 247.062 191.186 246.54 191.186H237.812C237.29 191.186 236.851 191.625 236.851 192.146C236.851 192.695 237.29 193.107 237.812 193.107Z" fill="#A6C7F9"></path><path d="M190.958 176.007H199.687C200.208 176.007 200.648 175.568 200.648 175.046C200.648 174.525 200.208 174.085 199.687 174.085H190.958C190.437 174.085 189.998 174.525 189.998 175.046C189.998 175.595 190.437 176.007 190.958 176.007Z" fill="#A6C7F9"></path><path d="M190.958 179.355H199.687C200.208 179.355 200.648 178.916 200.648 178.395C200.648 177.873 200.208 177.434 199.687 177.434H190.958C190.437 177.434 189.998 177.873 189.998 178.395C189.998 178.944 190.437 179.355 190.958 179.355Z" fill="#A6C7F9"></path><path d="M376.56 126.958C376.56 118.284 369.534 111.258 360.86 111.258C352.187 111.258 345.16 118.284 345.16 126.958C345.16 135.631 352.187 142.658 360.86 142.658C369.506 142.658 376.56 135.631 376.56 126.958Z" fill="#F3F9FF"></path><path d="M346.45 126.958C346.45 134.89 352.9 141.34 360.833 141.34C364.593 141.34 367.997 139.913 370.549 137.553L360.833 126.958V112.575C352.9 112.575 346.45 118.998 346.45 126.958Z" fill="#A6C7F9"></path><path d="M366.322 124.405H371.483C371.73 124.405 371.922 124.213 371.922 123.966C371.922 123.719 371.73 123.527 371.483 123.527H366.322C366.075 123.527 365.883 123.719 365.883 123.966C365.883 124.213 366.075 124.405 366.322 124.405Z" fill="#A6C7F9"></path><path d="M415.564 126.958C415.564 118.284 408.537 111.258 399.864 111.258C391.19 111.258 384.164 118.284 384.164 126.958C384.164 135.631 391.19 142.658 399.864 142.658C408.537 142.658 415.564 135.631 415.564 126.958Z" fill="#F3F9FF"></path><path d="M399.836 126.958L390.998 138.294C393.441 140.188 396.515 141.34 399.836 141.34C407.769 141.34 414.219 134.89 414.219 126.958C414.219 119.025 407.769 112.575 399.836 112.575C392.343 112.575 386.167 118.312 385.509 125.64L399.836 126.958Z" fill="#808285"></path><path d="M388.775 130.499H392.371C392.618 130.499 392.81 130.307 392.81 130.06C392.81 129.813 392.618 129.621 392.371 129.621H388.775C388.528 129.621 388.336 129.813 388.336 130.06C388.336 130.307 388.528 130.499 388.775 130.499Z" fill="#A6C7F9"></path><path d="M376.56 170.216C376.56 161.542 369.534 154.516 360.86 154.516C352.187 154.516 345.16 161.542 345.16 170.216C345.16 178.889 352.187 185.916 360.86 185.916C369.506 185.943 376.56 178.917 376.56 170.216Z" fill="#F3F9FF"></path><path d="M346.45 170.216C346.45 178.148 352.9 184.598 360.833 184.598C364.593 184.598 367.997 183.171 370.549 180.81L360.833 170.216V155.833C352.9 155.833 346.45 162.283 346.45 170.216Z" fill="#808285"></path><path d="M366.322 167.69H371.483C371.73 167.69 371.922 167.498 371.922 167.251C371.922 167.004 371.73 166.812 371.483 166.812H366.322C366.075 166.812 365.883 167.004 365.883 167.251C365.883 167.498 366.075 167.69 366.322 167.69Z" fill="#A6C7F9"></path><path d="M415.564 170.216C415.564 161.542 408.537 154.516 399.864 154.516C391.19 154.516 384.164 161.542 384.164 170.216C384.164 178.889 391.19 185.916 399.864 185.916C408.537 185.943 415.564 178.917 415.564 170.216Z" fill="#F3F9FF"></path><path d="M385.536 168.926C386.195 161.597 392.37 155.86 399.864 155.86C407.796 155.86 414.246 162.311 414.246 170.243C414.246 178.175 407.796 184.626 399.864 184.626C396.542 184.626 393.468 183.5 391.025 181.579L399.864 170.243L385.536 168.926Z" fill="#A6C7F9"></path><path d="M388.775 173.784H392.371C392.618 173.784 392.81 173.592 392.81 173.345C392.81 173.098 392.618 172.906 392.371 172.906H388.775C388.528 172.906 388.336 173.098 388.336 173.345C388.336 173.592 388.528 173.784 388.775 173.784Z" fill="#A6C7F9"></path><path d="M338.138 255.786H423.556V198.365H338.138V255.786Z" fill="#F3F9FF"></path><path d="M341.839 251.762H420.23V205.458H419.269V250.802H341.839V251.762Z" fill="#A6C7F9"></path><path d="M395.719 235.019C405.326 227.389 415.509 235.019 415.509 235.019V248.085H343.76V214.324C363.276 214.818 386.14 242.65 395.719 235.019Z" fill="#808285"></path><path d="M414.713 208.972H381.281C380.842 208.972 380.458 208.615 380.458 208.148C380.458 207.709 380.815 207.325 381.281 207.325H414.713C415.152 207.325 415.536 207.682 415.536 208.148C415.536 208.615 415.152 208.972 414.713 208.972Z" fill="#A6C7F9"></path><path d="M414.713 213.006H381.281C380.842 213.006 380.458 212.649 380.458 212.183C380.458 211.716 380.815 211.359 381.281 211.359H414.713C415.152 211.359 415.536 211.716 415.536 212.183C415.536 212.649 415.152 213.006 414.713 213.006Z" fill="#A6C7F9"></path><path d="M414.85 216.794H392.727C392.37 216.794 392.068 216.492 392.068 216.136V215.834C392.068 215.477 392.37 215.147 392.727 215.147H414.85C415.207 215.147 415.509 215.449 415.509 215.834V216.136C415.536 216.492 415.234 216.794 414.85 216.794Z" fill="#A6C7F9"></path><path d="M319.469 137.305H167.985C165.871 137.305 164.169 135.604 164.169 133.49C164.169 131.377 165.871 129.675 167.985 129.675H319.469C321.582 129.675 323.284 131.377 323.284 133.49C323.312 135.576 321.582 137.305 319.469 137.305Z" fill="#808285"></path><path d="M319.469 119.794H167.985C165.871 119.794 164.169 118.092 164.169 115.979C164.169 113.865 165.871 112.164 167.985 112.164H319.469C321.582 112.164 323.284 113.865 323.284 115.979C323.312 118.092 321.582 119.794 319.469 119.794Z" fill="#808285"></path><path d="M413.066 101.294H168.15C166.173 101.294 164.581 99.7022 164.581 97.7259C164.581 95.7497 166.173 94.1577 168.15 94.1577H413.066C415.042 94.1577 416.634 95.7497 416.634 97.7259C416.662 99.6747 415.042 101.294 413.066 101.294Z" fill="#808285"></path><path d="M298.362 263.62H294.052V332.898H298.362V263.62Z" fill="#9C122A"></path><path d="M434.256 84.0292H158.158C156.457 84.0292 155.084 82.6568 155.084 80.955C155.084 79.2533 156.457 77.8809 158.158 77.8809H434.256C435.957 77.8809 437.33 79.2533 437.33 80.955C437.302 82.6568 435.93 84.0292 434.256 84.0292Z" fill="#9C122A"></path><path d="M341.4 329.742H250.959C249.944 329.742 249.12 330.565 249.12 331.581C249.12 332.596 249.944 333.42 250.959 333.42H341.4C342.415 333.42 343.239 332.596 343.239 331.581C343.239 330.565 342.415 329.742 341.4 329.742Z" fill="#231F20"></path><path d="M135.294 307.015L138.89 322.111L144.242 322.084L144.435 307.015H135.294Z" fill="#E49963"></path><path d="M180.473 307.674L190.657 322.111L194.636 317.006L188.516 305.67L180.473 307.674Z" fill="#E49963"></path><path d="M153.959 108.595C152.092 107.552 149.897 107.415 148.332 107.524C148.744 107.113 149.512 106.948 149.512 106.948C148.552 106.811 146.411 107.771 146.411 107.771C133.016 102.611 130.903 122.346 131.177 126.93C131.452 131.514 126.676 133.023 119.704 136.619C106.392 143.508 105.239 152.731 105.239 152.731C105.349 152.786 105.459 152.868 105.568 152.951C106.227 151.825 107.6 149.739 108.725 149.41C108.67 149.52 107.38 152.292 106.886 153.911C110.811 156.903 118.167 163.518 123.272 168.211C123.245 167.306 123.272 165.988 123.629 165.302L124.26 169.117C127.005 171.642 128.899 173.399 128.899 173.399C128.57 169.694 145.67 150.151 154.59 144.277C156.759 141.093 157.527 135.439 157.582 135C157.198 139.474 156.429 141.999 155.743 143.399C163.264 136.427 158.872 111.395 153.959 108.595Z" fill="#231F20"></path><path d="M154.014 144.579C154.069 144.606 149.704 146.857 146.438 145.951C143.364 145.1 141.36 141.12 141.388 141.12C142.705 140.873 143.062 139.062 143.035 131.376L143.611 131.486L153.52 133.435C153.52 133.435 153.3 136.564 153.3 139.501C153.273 141.971 153.437 144.304 154.014 144.579Z" fill="#E49963"></path><path d="M153.52 133.435C153.52 133.435 153.3 136.564 153.3 139.501C147.756 139.336 144.819 134.286 143.611 131.486L153.52 133.435Z" fill="#D68D5D"></path><path d="M142.595 130.389C142.595 130.389 139.686 125.805 139 121.88C138.506 119.08 139.933 108.677 150.363 110.187C150.363 110.187 153.382 110.489 156.237 112.41C158.515 113.947 161.781 117.241 158.131 126.326L157.17 129.4L142.595 130.389Z" fill="#231F20"></path><path d="M193.017 313.053L187.775 313.218L182.093 313.383C182.093 313.383 168.945 298.753 161.589 275.313C161.425 274.764 161.233 274.215 161.04 273.666C157.006 261.918 148.662 247.151 144.242 233.784C143.529 231.643 142.925 229.667 142.349 227.746C142.156 227.142 141.992 226.538 141.827 225.962C138.588 214.681 137.627 207.27 136.777 199.365L168.589 199.612C168.589 199.639 173.721 253.656 193.017 313.053Z" fill="#595959"></path><path d="M164.115 181.359C164.032 196.483 166.338 202.988 166.338 202.988C166.338 202.988 152.724 209.905 136.53 204.827C136.337 204.772 124.041 201.972 124.041 201.972C124.315 201.368 128.487 191.185 128.762 190.636C132.193 183.308 132.11 179.822 132.495 177.571C133.236 173.372 133.263 169.007 132.879 164.89C131.891 154.021 128.954 144.963 128.954 144.963C133.373 143.948 137.49 142.191 142.074 140.462C143.117 141.779 146.356 143.152 149.155 143.097C152.367 143.014 153.437 141.642 153.245 140.132C156.676 142.054 159.421 143.838 159.421 143.838C162.33 148.916 168.259 153.829 168.698 161.624C168.836 163.545 164.115 180.947 164.115 181.359Z" fill="#E7F1FD"></path><path d="M180.309 168.925C177.536 162.31 169.302 147.297 157.884 142.109L162.028 165.412C162.028 165.412 161.507 169.035 163.895 172C169.769 179.273 178.525 184.488 178.525 184.488C178.525 184.488 185.826 183.747 196.64 180.152C200.044 179.026 207.345 172.905 207.345 172.905L207.454 168.129C207.454 168.129 197.793 170.078 194.417 170.462C192.495 170.682 188.076 171.231 184.975 171.643C182.999 171.862 181.105 170.764 180.309 168.925Z" fill="#9C122A"></path><path d="M155.386 136.235C155.386 136.235 142.266 136.454 142.266 128.275C142.266 120.095 140.564 114.633 148.936 114.139C157.308 113.645 158.954 116.774 159.613 119.492C160.245 122.209 158.79 135.96 155.386 136.235Z" fill="#E49963"></path><path d="M154.892 113.92C154.892 113.92 151.296 123.499 145.779 124.926C140.262 126.354 137.875 124.871 137.875 124.871C137.875 124.871 138.67 116.527 139.549 110.653C139.549 110.653 152.175 109.363 154.892 113.92Z" fill="#231F20"></path><path d="M154.014 114.716C154.014 114.716 156.704 116.857 157.362 118.943C158.021 121.029 158.323 125.311 159.558 125.173C159.558 125.173 162.275 118.668 159.229 114.963C155.962 111.038 154.014 114.716 154.014 114.716Z" fill="#231F20"></path><path d="M207.455 168.101C207.455 168.101 211.242 162.31 217.94 165.466C218.653 165.988 220.712 167.662 218.406 169.693C216.705 171.176 216.54 170.078 214.015 171.999C211.489 173.92 209.431 173.865 207.372 172.877L207.455 168.101Z" fill="#E49963"></path><path d="M138.698 321.288C138.698 321.288 139.137 324.279 138.012 327.491C138.012 327.491 137.133 331.498 141.086 331.581C145.038 331.663 145.999 331.279 145.56 328.836C145.121 326.393 144.27 322.138 144.27 322.138L138.698 321.288Z" fill="#E49963"></path><path d="M145.917 333.255C145.917 333.255 145.834 333.31 145.67 333.392H137.957C137.82 333.31 137.737 333.255 137.737 333.255C137.298 331.251 138.012 327.463 138.012 327.463C142.486 331.553 145.285 327.354 145.285 327.354C145.999 329.11 145.917 333.255 145.917 333.255Z" fill="#9C122A"></path><path d="M204.161 329.193C204.161 329.193 196.887 321.123 194.664 317.006L189.257 319.778L201.334 331.141L204.161 330.757V329.193Z" fill="#E49963"></path><path d="M208.662 333.392H198.699C197.738 332.679 196.832 331.032 195.734 328.781C195.131 327.601 193.813 326.942 192.441 326.585V333.31H190.382L188.433 326.174C187.143 323.813 188.324 321.672 189.229 319.806C190.272 319.806 193.127 320.519 198.479 326.585C200.236 328.562 202.185 329.275 204.133 329.22C204.161 329.248 204.188 329.248 204.216 329.275C207.455 330.702 208.388 332.514 208.662 333.392Z" fill="#9C122A"></path><path d="M153.273 140.132C153.273 140.132 160.876 158.879 161.095 162.694C161.315 166.482 162.001 224.754 162.001 224.754C162.001 224.754 161.562 227.444 166.695 226.318C171.827 225.193 173.172 224.095 173.172 224.095C173.172 224.095 168.259 188.139 169.604 175.65C170.757 164.753 162.083 147.845 159.805 143.646C159.476 143.014 158.927 142.52 158.268 142.246L153.273 140.132Z" fill="#9C122A"></path><path d="M187.774 313.218L182.093 313.383C182.093 313.383 168.945 298.753 161.589 275.313C161.425 274.764 161.232 274.215 161.04 273.666C157.006 261.918 148.661 247.151 144.242 233.784C143.529 231.643 142.925 229.667 142.348 227.746C142.156 227.142 141.992 226.538 141.827 225.962L146.52 222.421C146.52 222.421 160.574 245.203 164.938 266.612C168.698 285.249 183.849 307.646 187.774 313.218Z" fill="#232323"></path><path d="M146.987 268.615C147.069 279.046 146.548 303.008 145.176 312.916H140.125C137.353 312.916 135.953 312.889 135.953 312.889C132.55 295.652 130.134 281.379 128.35 269.082C126.895 258.981 125.605 250.335 124.617 242.897C123.629 235.404 122.943 229.118 122.668 223.821C122.641 222.997 122.613 222.174 122.586 221.378C122.559 220.582 122.559 219.813 122.586 219.072L150.061 216.382C149.787 234.635 146.96 262.577 146.987 268.615Z" fill="#595959"></path><path d="M140.153 312.916C137.38 312.916 135.981 312.889 135.981 312.889C132.577 295.652 130.162 281.379 128.377 269.082C126.923 258.981 125.633 250.335 124.645 242.897C123.656 235.404 122.97 229.118 122.696 223.821L132.769 229.75C132.769 229.75 126.319 232.028 128.789 249.21C131.287 266.392 136.749 310.501 140.153 312.916Z" fill="#232323"></path><path d="M141.443 223.629C141.443 223.629 139.494 230.628 132.797 229.722C126.099 228.816 116.575 224.809 116.575 224.809C116.575 224.809 119.43 215.751 122.998 203.894C127.307 189.511 132.632 170.956 135.157 159.264C135.871 155.997 136.337 153.252 136.529 151.276L142.074 140.489C142.074 140.489 150.363 159.071 150.802 163.765C151.269 168.486 141.443 223.629 141.443 223.629Z" fill="#9C122A"></path><path d="M134.773 163.106L142.101 140.517C142.074 140.517 132.852 143.261 128.185 145.622C128.185 145.622 125.276 149.355 123.492 158.001C123.492 158.001 121.598 178.751 125.825 186.354C125.825 186.354 139.219 189.044 160.656 181.661V176.748C160.656 176.748 137.216 177.983 132.412 178.532L134.773 163.106Z" fill="#E49963"></path><path d="M141.168 173.619C140.866 181.222 139.082 195.934 123.162 203.839C123.107 203.866 123.08 203.894 123.025 203.894C127.334 189.511 132.659 170.956 135.185 159.264C138.094 163.655 141.333 169.447 141.168 173.619Z" fill="#77031C"></path><path d="M142.101 140.517C142.101 140.517 128.515 141.477 125.221 148.778C121.955 156.079 120.912 180.343 125.084 187.48C125.084 187.48 130.82 189.127 140.976 187.205C141.113 187.178 141.223 187.15 141.36 187.123C141.36 187.123 144.599 179.191 141.69 177.626C141.69 177.626 133.126 178.065 134.032 175.238C134.91 172.438 142.101 140.517 142.101 140.517Z" fill="#9C122A"></path><path d="M158.241 178.065C158.241 178.065 160.107 175.814 160.519 173.481C160.931 171.176 162.166 169.446 165.377 169.035C168.588 168.623 169.988 168.568 169.988 169.474C169.988 170.38 167.353 176.72 162.742 180.508C158.103 184.296 158.241 178.065 158.241 178.065Z" fill="#E49963"></path><path d="M211.462 170.517C211.572 170.544 211.682 170.544 211.791 170.517L269.349 156.738C269.679 156.656 269.898 156.327 269.816 155.997C269.734 155.668 269.404 155.448 269.075 155.531L211.517 169.309C211.188 169.392 210.968 169.721 211.05 170.05C211.105 170.297 211.27 170.462 211.462 170.517Z" fill="#233862"></path><path d="M599.025 217.425C599.025 217.425 607.78 219.045 617.607 217.316C617.607 217.316 609.619 218.578 608.329 215.888C607.396 213.939 605.859 203.372 605.585 197.306C605.557 197.306 602.977 218.386 599.025 217.425Z" fill="#E9F3FE"></path><path d="M602.73 159.044C602.785 159.867 600.013 161.816 600.013 161.816C602.675 167.196 604.432 173.015 605.53 177.681L608.028 177.763C608.11 173.234 607.918 168.047 607.616 163.024C603.526 154.405 601.962 148.476 601.44 144.634C600.287 148.751 599.08 158.413 599.08 158.413C600.891 158.275 602.73 159.044 602.73 159.044Z" fill="#233862"></path><path d="M621.477 142.932L616.783 158.742L611.239 145.677C611.239 145.677 618.485 146.006 621.477 142.932Z" fill="#E9F3FE"></path><path d="M624.771 142.987C624.798 142.301 621.614 141.395 621.614 141.395C621.614 141.395 617.305 145.732 611.294 145.814C611.294 145.814 613.654 149.876 615.686 150.727C615.686 150.727 624.579 146.967 624.771 142.987Z" fill="#D9E9F9"></path><path d="M624.277 142.63C624.304 141.944 622.328 140.325 622.328 140.325C622.328 140.325 617.25 145.595 611.239 145.704C611.239 145.704 613.654 148.888 615.686 149.767C615.686 149.739 624.085 146.638 624.277 142.63Z" fill="#E9F3FE"></path><path d="M622.328 163.848C621.834 163.161 621.422 162.448 621.532 162.063C621.532 162.063 623.92 160.224 626.061 160.856C626.061 160.856 627.104 145.265 625.896 143.344C624.688 141.423 622.3 140.297 622.3 140.297C622.3 140.297 619.61 148.449 616.756 158.742C617.717 160.444 619.665 163.326 622.328 163.848Z" fill="#233862"></path><path d="M605.557 197.306C605.557 197.306 606.188 213.281 609.619 220.198C609.619 220.198 634.816 217.727 637.479 215.943L634.24 189.209L605.557 197.306Z" fill="#22407A"></path><path d="M590.543 202.713C590.488 207.928 588.347 214.543 588.347 214.543C590.406 216.41 598.832 219.484 598.832 219.484C603.938 213.583 605.53 197.306 605.53 197.306L590.543 202.713Z" fill="#22407A"></path><path d="M682.603 334.051H47.9555C47.5712 334.051 47.2693 333.749 47.2693 333.365V333.228C47.2693 332.843 47.5712 332.542 47.9555 332.542H682.603C682.988 332.542 683.289 332.843 683.289 333.228V333.365C683.289 333.749 682.988 334.051 682.603 334.051Z" fill="#2E3552"></path></g></g><defs><filter id="filter0_d_2029_4663" x="0.72583" y="0.319336" width="708.27" height="378.88" filterUnits="userSpaceOnUse" color-interpolation-filters="sRGB"></filter><clipPath id="clip0_2029_4663"><rect width="658.27" height="328.88" fill="white" transform="translate(25.7258 15.3193)"></rect></clipPath></defs></svg>