<svg xmlns="http://www.w3.org/2000/svg" width="22" height="22" viewBox="0 0 22 22" fill="none"><path d="M17.2941 0.579518H5.15469C3.95812 0.563398 2.80401 1.0159 1.94599 1.83759C1.08796 2.65928 0.596233 3.78293 0.578857 4.96158V17.2676C0.585623 17.8501 0.7089 18.4257 0.941639 18.9613C1.17438 19.4969 1.51201 19.9821 1.93524 20.389C2.35846 20.796 2.85898 21.1168 3.40816 21.3331C3.95735 21.5494 4.54443 21.657 5.13584 21.6496H17.2611C17.8521 21.6564 18.4387 21.5484 18.9873 21.3318C19.536 21.1152 20.0359 20.7943 20.4586 20.3874C20.8814 19.9805 21.2186 19.4955 21.451 18.9602C21.6835 18.4249 21.8066 17.8497 21.8134 17.2676V4.96158C21.8009 3.79111 21.3185 2.67309 20.4717 1.85194C19.6248 1.0308 18.4824 0.573319 17.2941 0.579518ZM20.0179 17.2676C20.0179 17.9558 19.7404 18.6158 19.2463 19.1024C18.7523 19.5891 18.0823 19.8624 17.3836 19.8624H5.15469C4.45671 19.8863 3.7777 19.6361 3.26693 19.1669C2.75616 18.6977 2.45544 18.0479 2.43087 17.3604V4.96158C2.42963 4.62086 2.49676 4.28327 2.62841 3.96819C2.76006 3.65311 2.95363 3.36678 3.19799 3.12563C3.44236 2.88449 3.7327 2.6933 4.05232 2.56306C4.37194 2.43281 4.71455 2.36608 5.06044 2.3667H17.2799C17.9779 2.34289 18.6569 2.59307 19.1677 3.06225C19.6785 3.53144 19.9792 4.18122 20.0038 4.86874V4.96158L20.0179 17.2676Z" fill="#0C0A3F"></path><path d="M11.2252 5.63574C10.1263 5.63574 9.05214 5.95672 8.13846 6.5581C7.22477 7.15947 6.51264 8.01423 6.09212 9.01428C5.6716 10.0143 5.56157 11.1148 5.77595 12.1764C5.99033 13.238 6.51949 14.2132 7.29652 14.9786C8.07354 15.744 9.06353 16.2653 10.1413 16.4765C11.2191 16.6876 12.3362 16.5792 13.3514 16.165C14.3667 15.7508 15.2344 15.0493 15.8449 14.1493C16.4554 13.2493 16.7813 12.1911 16.7813 11.1087C16.7813 9.65716 16.1959 8.26511 15.1539 7.23873C14.112 6.21236 12.6988 5.63574 11.2252 5.63574ZM11.2252 14.7155C10.4908 14.7155 9.77281 14.501 9.16214 14.0991C8.55147 13.6971 8.07551 13.1258 7.79445 12.4574C7.51338 11.789 7.43985 11.0536 7.58313 10.344C7.72641 9.63443 8.08008 8.98265 8.59942 8.47109C9.11875 7.95952 9.78043 7.61114 10.5008 7.47C11.2211 7.32885 11.9678 7.40129 12.6463 7.67815C13.3248 7.95501 13.9048 8.42385 14.3128 9.02539C14.7209 9.62693 14.9387 10.3342 14.9387 11.0576V11.1087C14.9337 12.0773 14.5409 13.0049 13.8455 13.6898C13.1502 14.3748 12.2086 14.7617 11.2252 14.7666V14.7155Z" fill="#0C0A3F"></path><path d="M17.186 6.64687C17.9069 6.64687 18.4913 6.07118 18.4913 5.36103C18.4913 4.65088 17.9069 4.0752 17.186 4.0752C16.465 4.0752 15.8806 4.65088 15.8806 5.36103C15.8806 6.07118 16.465 6.64687 17.186 6.64687Z" fill="#0C0A3F"></path></svg>