<svg xmlns="http://www.w3.org/2000/svg" width="82" height="83" viewBox="0 0 82 83" fill="none"><path d="M1.65527 41.7773C1.65527 20.0706 19.2523 2.47292 40.959 2.47266C62.6659 2.47266 80.2637 20.0704 80.2637 41.7773C80.2634 63.4841 62.6658 81.0811 40.959 81.0811V82.6748L42.0146 82.6611C63.7636 82.1103 81.2929 64.581 81.8438 42.832L81.8574 41.7773C81.8574 19.19 63.5463 0.878906 40.959 0.878906L39.9043 0.892578C17.8046 1.45226 0.0615234 19.5428 0.0615234 41.7773L0.0751953 42.832C0.634872 64.9315 18.7247 82.6745 40.959 82.6748V81.0811C19.2524 81.0808 1.65554 63.4839 1.65527 41.7773Z" fill="black"></path><path d="M31.9077 36.1416C31.5964 35.8304 31.092 35.8304 30.7808 36.1416L25.7085 41.2139C25.3974 41.5251 25.3974 42.0296 25.7085 42.3408L30.7808 47.4131C31.092 47.7243 31.5964 47.7242 31.9077 47.4131C32.219 47.1018 32.219 46.5974 31.9077 46.2861L28.1958 42.5742H55.647V40.9805H28.1958L31.9077 37.2685C32.219 36.9573 32.219 36.4529 31.9077 36.1416Z" fill="black"></path></svg>