<svg xmlns="http://www.w3.org/2000/svg" width="83" height="83"><path d="M0 0 C8.78020831 8.39846012 14.09156417 18.67933923 14.37890625 30.9140625 C14.27011826 41.67198607 11.36841822 51.00593256 4.06640625 58.9765625 C3.54175781 59.59144531 3.01710938 60.20632812 2.4765625 60.83984375 C-4.25597217 68.23771125 -13.58684381 72.3806886 -23.51171875 73.3125 C-36.90436015 73.45497491 -47.12841714 70.07602694 -57.09375 61.01171875 C-65.46930929 52.35436494 -69.32953566 41.43744441 -69.1484375 29.46484375 C-68.19706486 18.44621878 -63.16852803 7.45797338 -54.93359375 -0.0234375 C-38.01065356 -12.11125192 -16.54720732 -13.91267879 0 0 Z M-58.74609375 8.2265625 C-65.61569634 17.71619956 -67.16836307 27.406774 -65.93359375 38.9765625 C-62.95330481 51.39950159 -55.50304126 60.10840092 -44.93359375 66.9765625 C-36.80197358 71.45760426 -26.73793786 71.85520373 -17.80859375 69.9765625 C-5.93988126 66.48484365 2.48782991 59.23875267 8.4453125 48.48828125 C12.70925381 38.69755886 12.83300484 26.51955037 9.12890625 16.5390625 C3.93467125 5.85713291 -4.46546351 -1.91347397 -15.62109375 -5.8359375 C-32.49038454 -10.33097058 -47.67171145 -4.88907247 -58.74609375 8.2265625 Z " fill="#000000" transform="translate(68.93359375,10.0234375)"></path><path d="M0 0 C0.66 0.33 1.32 0.66 2 1 C1.34 2.32 0.68 3.64 0 5 C12.87 5.495 12.87 5.495 26 6 C26 6.66 26 7.32 26 8 C13.625 8.495 13.625 8.495 1 9 C1.33 10.32 1.66 11.64 2 13 C-0.84383123 11.7251791 -3.13754018 10.54862922 -5 8 C-4.90311287 4.99649894 -3.98152289 3.97984316 -1.9375 1.75 C-1.298125 1.1725 -0.65875 0.595 0 0 Z " fill="#000000" transform="translate(31,35)"></path></svg>