<svg xmlns="http://www.w3.org/2000/svg" width="19" height="19" viewBox="0 0 19 19" fill="none"><path d="M0.443387 6.00234L4.21338 6.03947L4.08143 18.0112L0.311438 17.9695L0.443387 6.00234ZM2.4085 0.0698393C2.84029 0.0771976 3.26018 0.21034 3.61525 0.452464C3.97031 0.694588 4.24466 1.03485 4.40366 1.43036C4.56267 1.82586 4.59921 2.25889 4.5087 2.67483C4.4182 3.09077 4.20469 3.471 3.89509 3.76756C3.5855 4.06413 3.19369 4.26375 2.76907 4.34126C2.34446 4.41876 1.90603 4.37068 1.50912 4.20307C1.11221 4.03546 0.774569 3.75584 0.538779 3.39945C0.302988 3.04307 0.179617 2.62589 0.184206 2.20053C0.186013 1.91612 0.245223 1.6349 0.358407 1.37325C0.471592 1.1116 0.636481 0.874739 0.843477 0.676455C1.05047 0.478171 1.29545 0.322424 1.56413 0.218281C1.83281 0.114138 2.11984 0.0636776 2.4085 0.0698393Z" fill="#0C0A3F"></path><path d="M6.5545 6.06679L10.1737 6.10392V7.73791C10.5426 7.12986 11.0726 6.63228 11.707 6.29861C12.3413 5.96493 13.0559 5.80775 13.774 5.84397C17.5912 5.88574 18.2745 8.36923 18.2415 11.6001L18.1708 18.1592L14.4809 18.1221L14.5469 12.2964C14.5469 10.9038 14.5799 9.12123 12.6195 9.09802C10.6591 9.07481 10.3386 10.5927 10.3245 12.0828L10.2585 18.0107L6.44141 17.9689L6.5545 6.06679Z" fill="#0C0A3F"></path></svg>