<svg xmlns="http://www.w3.org/2000/svg" width="229" height="73" viewBox="0 0 229 73" fill="none"><circle cx="36.5" cy="36.5" r="36.5" fill="#9C122A"></circle><path d="M36.5 21.5V28H46V14H55V59H45V36H28V14H18V59H28V45H37V52" stroke="white" stroke-width="2.5"></path><path d="M81 20.584H87M93 20.584H87M87 20.584V46.084" stroke="#646464" stroke-width="2"></path><path d="M94 28.084C94 29.6821 94 31.484 94 33.3144M94 46.084C94 46.084 94 39.5347 94 33.3144M99 28.084C97.6667 28.7376 94.8 30.6987 94 33.3144" stroke="#646464" stroke-width="2"></path><path d="M162 28.084C162 29.6821 162 31.484 162 33.3144M162 46.084C162 46.084 162 39.5347 162 33.3144M167 28.084C165.667 28.7376 162.8 30.6987 162 33.3144" stroke="#646464" stroke-width="2"></path><path d="M102.5 28.5849V46.0849M118 23.0849C116.833 20.7516 113.2 17.2849 108 22.0849C106.667 23.7513 105.1 27.884 109.5 31.084C112.167 32.7507 117.3 36.884 116.5 40.084C116 42.4173 113.5 46.084 107.5 42.084" stroke="#646464" stroke-width="2"></path><path d="M228 31.3391C227.284 29.7956 225.053 27.5025 221.86 30.6776C221.041 31.7799 220.079 34.5136 222.781 36.6304C224.418 37.7328 227.57 40.467 227.079 42.5837C226.772 44.1272 225.237 46.5527 221.553 43.9067" stroke="#646464" stroke-width="2"></path><path d="M124 20.0838V31.5838M124 46.0838V31.5838M124 31.5838H133V20.0838V46.0838M148.5 46.0838V32.5838M148.5 32.5838V19.0838C152.333 18.5838 159.4 20.0838 157 30.0838C156.167 31.7505 153.3 34.5838 148.5 32.5838Z" stroke="#646464" stroke-width="2"></path><path d="M173.5 29.084C174.539 29.084 175.641 29.7767 176.536 31.2412C177.421 32.6886 178 34.752 178 37.084C178 39.4159 177.421 41.4793 176.536 42.9268C175.641 44.3913 174.539 45.084 173.5 45.084C172.461 45.084 171.359 44.3913 170.464 42.9268C169.579 41.4793 169 39.4159 169 37.084C169 34.752 169.579 32.6886 170.464 31.2412C171.359 29.7767 172.461 29.084 173.5 29.084Z" stroke="#646464" stroke-width="2"></path><path d="M183.5 28.084V53.084" stroke="#646464" stroke-width="2"></path><path d="M190 36.5838H198C198.333 33.0838 197.8 26.4838 193 28.0838C191.333 28.7503 188.4 31.3836 190 36.5838ZM190 36.5838C189.667 38.7505 189.6 44.5269 193.5 45.084C197 45.584 197.667 42.4173 197.5 40.084M209 29.084C206.167 28.584 200.9 29.584 202.5 37.584C202.667 41.2507 204.2 47.584 209 43.584" stroke="#646464" stroke-width="2"></path><path d="M214.5 23.084V28.584M214.5 45.584V28.584M214.5 28.584H211H219" stroke="#646464" stroke-width="2"></path><rect x="101" y="21.084" width="3" height="3" fill="#646464"></rect><rect x="182" y="21.084" width="3" height="3" fill="#646464"></rect></svg>