<svg xmlns="http://www.w3.org/2000/svg" width="231" height="80"><path d="M0 0 C0 0.66 0 1.32 0 2 C0.886875 2.12375 1.77375 2.2475 2.6875 2.375 C5.70387502 2.94412736 8.20326054 3.76614436 11 5 C11 5.66 11 6.32 11 7 C11.556875 7.226875 12.11375 7.45375 12.6875 7.6875 C16.34339324 9.76246643 19.3951948 12.27863135 20.8125 16.3125 C20.874375 16.869375 20.93625 17.42625 21 18 C21.66 18 22.32 18 23 18 C25.07594691 23.85417027 27.17213713 29.81862388 28 36 C27.67 36.33 27.34 36.66 27 37 C26.676557 38.89067134 26.39135818 40.78794563 26.125 42.6875 C25.37826919 47.32711424 24.50128826 50.95945743 22 55 C21.401875 56.010625 20.80375 57.02125 20.1875 58.0625 C15.4728033 64.39366414 7.85834387 70.356705 0 72 C-3.1012899 72.23942582 -6.20283989 72.23093695 -9.3125 72.25 C-10.14201172 72.270625 -10.97152344 72.29125 -11.82617188 72.3125 C-20.50459963 72.3672967 -26.25958819 69.36481756 -33 64 C-33 63.34 -33 62.68 -33 62 C-33.90878906 61.61908203 -33.90878906 61.61908203 -34.8359375 61.23046875 C-37.2813276 59.84003936 -38.1734924 58.69578184 -39.625 56.3125 C-40.23214844 55.34763672 -40.23214844 55.34763672 -40.8515625 54.36328125 C-45.26084001 45.28976801 -45.71980896 32.72090663 -42.9375 23 C-40.4276067 16.86868922 -36.229622 10.61507209 -30 8 C-30 7.34 -30 6.68 -30 6 C-19.67157131 -0.03539485 -11.67801935 -0.7552252 0 0 Z " fill="#9D1B2D" transform="translate(47,3)"></path><path d="M0 0 C0 0.66 0 1.32 0 2 C0.886875 2.12375 1.77375 2.2475 2.6875 2.375 C5.70387502 2.94412736 8.20326054 3.76614436 11 5 C11 5.66 11 6.32 11 7 C11.5775 7.2475 12.155 7.495 12.75 7.75 C15.3002997 9.16683317 17.01785701 10.87627537 19 13 C15.89448334 13 14.64738916 12.4606285 12 11 C11.34 11.66 10.68 12.32 10 13 C5.98805634 13.27783543 2.02552638 13.0856495 -2 13 C-2 17.29 -2 21.58 -2 26 C-3.98 26 -5.96 26 -8 26 C-8 24.35 -8 22.7 -8 21 C-8.99 21 -9.98 21 -11 21 C-11 23.64 -11 26.28 -11 29 C-7.04 29 -3.08 29 1 29 C1 24.71 1 20.42 1 16 C2.98 16 4.96 16 7 16 C7 29.53 7 43.06 7 57 C5.02 57 3.04 57 1 57 C1 49.74 1 42.48 1 35 C-4.94 35 -10.88 35 -17 35 C-17 27.74 -17 20.48 -17 13 C-20.96 13 -24.92 13 -29 13 C-29 28.84 -29 44.68 -29 61 C-25.04 61 -21.08 61 -17 61 C-17 61.33 -17 61.66 -17 62 C-20.63 62 -24.26 62 -28 62 C-27.67 62.99 -27.34 63.98 -27 65 C-29.94956528 63.63055898 -32.52468811 62.12169591 -35 60 C-35 59.34 -35 58.68 -35 58 C-35.99 58 -36.98 58 -38 58 C-45.07851349 49.20548323 -44.79084682 38.70064169 -44 28 C-42.89600048 20.83403947 -39.04188368 15.12862577 -34 10 C-31.77734375 8.74609375 -31.77734375 8.74609375 -30 8 C-30 7.34 -30 6.68 -30 6 C-19.67157131 -0.03539485 -11.67801935 -0.7552252 0 0 Z " fill="#99192A" transform="translate(47,3)"></path><path d="M0 0 C3.96 0 7.92 0 12 0 C12 7.26 12 14.52 12 22 C17.94 22 23.88 22 30 22 C30 29.26 30 36.52 30 44 C31.98 44 33.96 44 36 44 C36 30.47 36 16.94 36 3 C34.02 3 32.04 3 30 3 C30 7.29 30 11.58 30 16 C26.04 16 22.08 16 18 16 C18 13.36 18 10.72 18 8 C18.99 8 19.98 8 21 8 C21 9.65 21 11.3 21 13 C22.98 13 24.96 13 27 13 C27 8.71 27 4.42 27 0 C30.96 0 34.92 0 39 0 C39 15.51 39 31.02 39 47 C35.04 47 31.08 47 27 47 C27 39.74 27 32.48 27 25 C21.06 25 15.12 25 9 25 C9 17.74 9 10.48 9 3 C7.02 3 5.04 3 3 3 C3 16.53 3 30.06 3 44 C4.98 44 6.96 44 9 44 C9 39.71 9 35.42 9 31 C12.96 31 16.92 31 21 31 C21 33.64 21 36.28 21 39 C20.01 39 19.02 39 18 39 C18 37.35 18 35.7 18 34 C16.02 34 14.04 34 12 34 C12 38.29 12 42.58 12 47 C8.04 47 4.08 47 0 47 C0 31.49 0 15.98 0 0 Z " fill="#EBD3D3" transform="translate(18,16)"></path><path d="M0 0 C1.65 0.33 3.3 0.66 5 1 C4.67 2.32 4.34 3.64 4 5 C5.94603274 5.59070014 5.94603274 5.59070014 8 6 C8.33 5.67 8.66 5.34 9 5 C12 4.875 12 4.875 15 5 C16 6 16 6 16.0625 8.5625 C16.041875 9.366875 16.02125 10.17125 16 11 C15.01 11.495 15.01 11.495 14 12 C13.01 11.01 12.02 10.02 11 9 C12.52206009 11.62901288 13.84365964 13.84365964 16 16 C16.3125 19.5 16.3125 19.5 16 23 C12.77208445 25.1519437 11.71599191 25.20086443 8 25 C7.34 23.68 6.68 22.36 6 21 C6.804375 20.87625 7.60875 20.7525 8.4375 20.625 C9.283125 20.41875 10.12875 20.2125 11 20 C11.33 19.34 11.66 18.68 12 18 C11.34 18 10.68 18 10 18 C7.38103911 15.17152224 6.5260925 12.78786597 6 9 C5.01 9.495 5.01 9.495 4 10 C4.495 16.93 4.495 16.93 5 24 C3.02 24.66 1.04 25.32 -1 26 C-1 20.72 -1 15.44 -1 10 C-3.31 9.67 -5.62 9.34 -8 9 C-8 12.96 -8 16.92 -8 21 C-6.35 20.67 -4.7 20.34 -3 20 C-3.33 21.65 -3.66 23.3 -4 25 C-6.8125 25.25 -6.8125 25.25 -10 25 C-12.30547725 22.7428894 -12.95331403 21.33687129 -13.3984375 18.125 C-13.38683594 16.578125 -13.38683594 16.578125 -13.375 15 C-13.38273438 13.96875 -13.39046875 12.9375 -13.3984375 11.875 C-12.9486257 8.62929915 -12.39887145 7.22411922 -10 5 C-7.73828125 4.609375 -7.73828125 4.609375 -5.3125 4.75 C-4.50425781 4.78609375 -3.69601563 4.8221875 -2.86328125 4.859375 C-1.94095703 4.92898437 -1.94095703 4.92898437 -1 5 C-0.67 3.35 -0.34 1.7 0 0 Z " fill="#414141" transform="translate(214,26)"></path><path d="M0 0 C1.26237731 2.52475462 1.09856404 4.31200466 1.0625 7.125 C1.05347656 8.03507812 1.04445312 8.94515625 1.03515625 9.8828125 C1.02355469 10.58148438 1.01195312 11.28015625 1 12 C1.99 11.34 2.98 10.68 4 10 C4.3256706 8.05430321 4.3256706 8.05430321 4.125 5.9375 C4.063125 3.9884375 4.063125 3.9884375 4 2 C4.33 1.67 4.66 1.34 5 1 C6.65 1 8.3 1 10 1 C9.67 10.57 9.34 20.14 9 30 C7.35 30 5.7 30 4 30 C4 26.04 4 22.08 4 18 C3.01 17.67 2.02 17.34 1 17 C0.67 21.29 0.34 25.58 0 30 C-1.65 30 -3.3 30 -5 30 C-5 20.76 -5 11.52 -5 2 C-3.35 1.34 -1.7 0.68 0 0 Z " fill="#484848" transform="translate(127,21)"></path><path d="M0 0 C2 2 2 2 2.125 4.625 C2.08375 5.40875 2.0425 6.1925 2 7 C-0.31 6.67 -2.62 6.34 -5 6 C-4.96219702 8.37233611 -4.96219702 8.37233611 -4 11 C-1.05763218 13.21168225 -1.05763218 13.21168225 2 15 C3.60290203 18.20580406 3.48117071 21.52182314 3 25 C1.4375 27.5 1.4375 27.5 -1 29 C-5.40203429 29.46337203 -7.2794164 29.48038907 -11 27 C-11 25.68 -11 24.36 -11 23 C-8.03 23.33 -5.06 23.66 -2 24 C-2 22.02 -2 20.04 -2 18 C-2.7425 17.7525 -3.485 17.505 -4.25 17.25 C-7.39631938 15.81985483 -8.99110465 14.8273342 -11 12 C-11.82205464 7.96445905 -11.63168995 5.01070393 -9.4375 1.5 C-6.12405448 -0.5390434 -3.81884318 -0.42431591 0 0 Z " fill="#3D3D3D" transform="translate(118,22)"></path><path d="M0 0 C2.05078125 0.03255208 4.1015625 0.06510417 6.15234375 0.09765625 C6.15234375 0.75765625 6.15234375 1.41765625 6.15234375 2.09765625 C6.81234375 2.09765625 7.47234375 2.09765625 8.15234375 2.09765625 C9.37925442 4.55147759 9.35410306 6.29749728 9.40234375 9.03515625 C9.44101563 10.34806641 9.44101563 10.34806641 9.48046875 11.6875 C9.15234375 14.09765625 9.15234375 14.09765625 7.88671875 15.9140625 C6.15234375 17.09765625 6.15234375 17.09765625 2.15234375 17.09765625 C2.15234375 21.05765625 2.15234375 25.01765625 2.15234375 29.09765625 C0.50234375 29.09765625 -1.14765625 29.09765625 -2.84765625 29.09765625 C-2.87231506 25.12834636 -2.89049648 21.15906591 -2.90258789 17.18969727 C-2.90762682 15.83845239 -2.91445802 14.48721299 -2.9230957 13.13598633 C-2.93518044 11.19745191 -2.94035453 9.25887825 -2.9453125 7.3203125 C-2.95054932 6.15250244 -2.95578613 4.98469238 -2.96118164 3.78149414 C-2.80750254 0.14838808 -2.80750254 0.14838808 0 0 Z M2.15234375 4.09765625 C2.15234375 7.06765625 2.15234375 10.03765625 2.15234375 13.09765625 C2.81234375 12.76765625 3.47234375 12.43765625 4.15234375 12.09765625 C4.15234375 9.78765625 4.15234375 7.47765625 4.15234375 5.09765625 C3.49234375 4.76765625 2.83234375 4.43765625 2.15234375 4.09765625 Z " fill="#363636" transform="translate(149.84765625,21.90234375)"></path><path d="M0 0 C2.83203125 0.03255208 5.6640625 0.06510417 8.49609375 0.09765625 C8.49609375 6.69765625 8.49609375 13.29765625 8.49609375 20.09765625 C7.17609375 20.09765625 5.85609375 20.09765625 4.49609375 20.09765625 C4.49609375 14.81765625 4.49609375 9.53765625 4.49609375 4.09765625 C3.50609375 4.59265625 3.50609375 4.59265625 2.49609375 5.09765625 C2.18368004 7.64706998 1.98305954 10.10127138 1.87109375 12.66015625 C1.83242187 13.37107422 1.79375 14.08199219 1.75390625 14.81445312 C1.65937592 16.5750805 1.57663558 18.33633353 1.49609375 20.09765625 C-0.15390625 20.09765625 -1.80390625 20.09765625 -3.50390625 20.09765625 C-3.53279139 16.95184202 -3.55066548 13.80606156 -3.56640625 10.66015625 C-3.57478516 9.76232422 -3.58316406 8.86449219 -3.59179688 7.93945312 C-3.59501953 7.08544922 -3.59824219 6.23144531 -3.6015625 5.3515625 C-3.60941772 4.16542358 -3.60941772 4.16542358 -3.61743164 2.95532227 C-3.4390318 0.03608708 -2.92971854 0.11426359 0 0 Z " fill="#2D2D2D" transform="translate(96.50390625,30.90234375)"></path><path d="M0 0 C3.96 0 7.92 0 12 0 C12.33 0.99 12.66 1.98 13 3 C12.67 3.66 12.34 4.32 12 5 C10.68 5 9.36 5 8 5 C8 12.92 8 20.84 8 29 C6.35 29 4.7 29 3 29 C3 21.08 3 13.16 3 5 C2.01 5 1.02 5 0 5 C0 3.35 0 1.7 0 0 Z " fill="#343434" transform="translate(82,22)"></path><path d="M0 0 C3 0.5 3 0.5 4.6640625 2.15625 C6.3460563 5.10711632 6.400364 7.118133 6.375 10.5 C6.38273438 11.53125 6.39046875 12.5625 6.3984375 13.625 C5.95332807 16.83677003 5.2840595 18.22666379 3 20.5 C0 21 0 21 -3 20.5 C-5.2840595 18.22666379 -5.95332807 16.83677003 -6.3984375 13.625 C-6.38683594 12.078125 -6.38683594 12.078125 -6.375 10.5 C-6.38273438 9.46875 -6.39046875 8.4375 -6.3984375 7.375 C-5.77845588 2.90140711 -4.5361908 0.7560318 0 0 Z M-1 4.5 C-2.0812391 10.56050614 -2.0812391 10.56050614 -1 16.5 C-0.34 16.5 0.32 16.5 1 16.5 C1.76173392 12.1835078 2.16063604 8.75566547 1 4.5 C0.34 4.5 -0.32 4.5 -1 4.5 Z " fill="#5A5A5A" transform="translate(174,30.5)"></path><path d="M0 0 C0.94875 0.04125 1.8975 0.0825 2.875 0.125 C5.06406373 3.66051166 5.14370816 6.57638074 5.125 10.6875 C5.13015625 11.82316406 5.1353125 12.95882812 5.140625 14.12890625 C4.875 17.125 4.875 17.125 2.875 20.125 C-0.0625 20.5625 -0.0625 20.5625 -3.125 20.125 C-6.28099146 17.29549042 -6.88611177 14.26572931 -7.125 10.125 C-5.61035816 0.22441433 -5.61035816 0.22441433 0 0 Z M-1.125 4.125 C-1.455 5.445 -1.785 6.765 -2.125 8.125 C-1.135 8.125 -0.145 8.125 0.875 8.125 C0.215 6.805 -0.445 5.485 -1.125 4.125 Z M-2.125 11.125 C-1.795 12.775 -1.465 14.425 -1.125 16.125 C-0.465 15.795 0.195 15.465 0.875 15.125 C0.875 14.135 0.875 13.145 0.875 12.125 C-0.115 11.795 -1.105 11.465 -2.125 11.125 Z " fill="#545454" transform="translate(195.125,30.875)"></path><path d="M0 0 C0.33 0 0.66 0 1 0 C1 13.53 1 27.06 1 41 C3.31 41 5.62 41 8 41 C8 36.71 8 32.42 8 28 C11.96 28 15.92 28 20 28 C20 30.64 20 33.28 20 36 C19.01 36 18.02 36 17 36 C17 34.35 17 32.7 17 31 C15.02 31 13.04 31 11 31 C11 34.96 11 38.92 11 43 C7.37 43 3.74 43 0 43 C0 28.81 0 14.62 0 0 Z " fill="#FBF7F7" transform="translate(19,19)"></path><path d="M0 0 C0 9.24 0 18.48 0 28 C-1.32 28.33 -2.64 28.66 -4 29 C-5.77490546 27.22509454 -5.23499973 24.62215098 -5.31640625 22.21484375 C-5.37924805 20.46010742 -5.37924805 20.46010742 -5.44335938 18.66992188 C-5.48267578 17.43822266 -5.52199219 16.20652344 -5.5625 14.9375 C-5.60568359 13.70193359 -5.64886719 12.46636719 -5.69335938 11.19335938 C-5.79984198 8.12902665 -5.90185424 5.06460927 -6 2 C-1.125 0 -1.125 0 0 0 Z " fill="#484848" transform="translate(187,30)"></path><path d="M0 0 C2.64 0 5.28 0 8 0 C8 1.32 8 2.64 8 4 C7.01 4.495 7.01 4.495 6 5 C6 9.62 6 14.24 6 19 C4.02 19.66 2.04 20.32 0 21 C0 14.07 0 7.14 0 0 Z " fill="#444444" transform="translate(160,31)"></path><path d="M0 0 C2 2 2 2 2.125 4.625 C2.08375 5.40875 2.0425 6.1925 2 7 C-0.31 6.67 -2.62 6.34 -5 6 C-4.34414811 9.60992379 -4.34414811 9.60992379 -3 13 C-4.32 13.99 -5.64 14.98 -7 16 C-9.28030304 14.28977272 -10.7979461 12.94809908 -11.40625 10.09375 C-11.56456405 6.55806961 -11.33849677 4.54159483 -9.4375 1.5 C-6.12405448 -0.5390434 -3.81884318 -0.42431591 0 0 Z " fill="#535353" transform="translate(118,22)"></path><path d="M0 0 C0.66 0 1.32 0 2 0 C2 0.66 2 1.32 2 2 C2.5775 2.268125 3.155 2.53625 3.75 2.8125 C6 4 6 4 7.8125 5.5 C10.69406035 7.4759271 13.64669814 8.08546313 17 9 C17.99 9.66 18.98 10.32 20 11 C22.12337771 11.36433373 22.12337771 11.36433373 24.44921875 11.4140625 C25.29677734 11.45273438 26.14433594 11.49140625 27.01757812 11.53125 C28.33918945 11.57765625 28.33918945 11.57765625 29.6875 11.625 C30.58017578 11.66367188 31.47285156 11.70234375 32.39257812 11.7421875 C34.5948462 11.83640218 36.79710722 11.92201588 39 12 C36.20936002 14.79063998 34.22546988 14.2892625 30.41210938 14.32226562 C29.55423828 14.31904297 28.69636719 14.31582031 27.8125 14.3125 C26.55469727 14.33666992 26.55469727 14.33666992 25.27148438 14.36132812 C16.55964818 14.36812893 10.76887365 11.38747087 4 6 C4 5.34 4 4.68 4 4 C2.68 3.34 1.36 2.68 0 2 C0 1.34 0 0.68 0 0 Z " fill="#8B3439" transform="translate(10,61)"></path><path d="M0 0 C7 7 7 7 7.3125 10.5 C7.1578125 12.2325 7.1578125 12.2325 7 14 C3.77208445 16.1519437 2.71599191 16.20086443 -1 16 C-1.66 14.68 -2.32 13.36 -3 12 C-2.195625 11.87625 -1.39125 11.7525 -0.5625 11.625 C0.283125 11.41875 1.12875 11.2125 2 11 C2.33 10.34 2.66 9.68 3 9 C2.34 9 1.68 9 1 9 C-1.74375671 6.04518508 -2 5.22528092 -2 1 C-1.34 0.67 -0.68 0.34 0 0 Z " fill="#5C5C5C" transform="translate(223,35)"></path><path d="M0 0 C0.99 0.495 0.99 0.495 2 1 C1.67 1.66 1.34 2.32 1 3 C1.66 3 2.32 3 3 3 C3.33 5.31 3.66 7.62 4 10 C4.66 10 5.32 10 6 10 C6 10.99 6 11.98 6 13 C6.66 13.33 7.32 13.66 8 14 C6.35 14 4.7 14 3 14 C3 17.96 3 21.92 3 26 C2.01 26 1.02 26 0 26 C0 17.42 0 8.84 0 0 Z " fill="#6D6D6D" transform="translate(148,24)"></path><path d="M0 0 C1.32 0 2.64 0 4 0 C3.67 8.25 3.34 16.5 3 25 C2.01 25 1.02 25 0 25 C0 16.75 0 8.5 0 0 Z " fill="#6C6C6C" transform="translate(86,25)"></path><path d="M0 0 C2.42130331 3.63195496 2.21022785 5.38349348 2.125 9.6875 C2.10695312 10.86699219 2.08890625 12.04648437 2.0703125 13.26171875 C2.03550781 14.61716797 2.03550781 14.61716797 2 16 C1.67 16 1.34 16 1 16 C1 14.35 1 12.7 1 11 C0.01 11.33 -0.98 11.66 -2 12 C-2.99 12 -3.98 12 -5 12 C-5.99 12.495 -5.99 12.495 -7 13 C-7.33 11.35 -7.66 9.7 -8 8 C-7.195625 7.7525 -6.39125 7.505 -5.5625 7.25 C-2.828919 6.27761141 -2.828919 6.27761141 -2.1875 3.875 C-2.125625 3.25625 -2.06375 2.6375 -2 2 C-1.34 2 -0.68 2 0 2 C0 1.34 0 0.68 0 0 Z " fill="#494949" transform="translate(198,32)"></path><path d="M0 0 C0 2.64 0 5.28 0 8 C3.96 8 7.92 8 12 8 C11 11 11 11 9 12 C6.7927077 12.07092842 4.58332548 12.08415025 2.375 12.0625 C1.18648437 12.05347656 -0.00203125 12.04445313 -1.2265625 12.03515625 C-2.14179687 12.02355469 -3.05703125 12.01195312 -4 12 C-3.88648483 10.18674449 -3.75887039 8.37436643 -3.625 6.5625 C-3.55539063 5.55316406 -3.48578125 4.54382813 -3.4140625 3.50390625 C-3.27742188 2.67761719 -3.14078125 1.85132812 -3 1 C-1 0 -1 0 0 0 Z " fill="#A22436" transform="translate(36,24)"></path><path d="M0 0 C4.75 0.875 4.75 0.875 7 2 C7 4.97 7 7.94 7 11 C5.68 11 4.36 11 3 11 C3 9.02 3 7.04 3 5 C1.68 4.67 0.36 4.34 -1 4 C-0.67 2.68 -0.34 1.36 0 0 Z " fill="#595959" transform="translate(113,35)"></path><path d="M0 0 C0.99 0 1.98 0 3 0 C3 5.94 3 11.88 3 18 C2.01 18 1.02 18 0 18 C0 12.06 0 6.12 0 0 Z " fill="#6D6D6D" transform="translate(102,32)"></path><path d="M0 0 C3.96 0 7.92 0 12 0 C12 2.64 12 5.28 12 8 C11.01 8 10.02 8 9 8 C9 6.35 9 4.7 9 3 C8.05125 3.04125 7.1025 3.0825 6.125 3.125 C3 3 3 3 1 1 C1 4.96 1 8.92 1 13 C0.67 13 0.34 13 0 13 C0 8.71 0 4.42 0 0 Z " fill="#E8CCCA" transform="translate(27,47)"></path><path d="M0 0 C0.99 0.495 0.99 0.495 2 1 C2.625 4.0625 2.625 4.0625 3 7 C3.33 5.02 3.66 3.04 4 1 C6.31 1 8.62 1 11 1 C11 1.33 11 1.66 11 2 C9.35 2 7.7 2 6 2 C6.65585189 5.60992379 6.65585189 5.60992379 8 9 C6.68 9.99 5.36 10.98 4 12 C2 10.5 2 10.5 0 8 C-0.35800135 5.24128373 -0.18660165 2.79902476 0 0 Z " fill="#363636" transform="translate(107,26)"></path><path d="M0 0 C2.475 0.99 2.475 0.99 5 2 C5.33 1.67 5.66 1.34 6 1 C9 0.875 9 0.875 12 1 C13 2 13 2 13.0625 4.5625 C13.041875 5.366875 13.02125 6.17125 13 7 C12.01 7.495 12.01 7.495 11 8 C10.01 7.01 9.02 6.02 8 5 C7.67 5.66 7.34 6.32 7 7 C6.01 6.67 5.02 6.34 4 6 C3.3125 3.9375 3.3125 3.9375 3 2 C2.01 2 1.02 2 0 2 C0 1.34 0 0.68 0 0 Z " fill="#444444" transform="translate(217,30)"></path><path d="M0 0 C0.33 0 0.66 0 1 0 C1 4.29 1 8.58 1 13 C-2.96 13 -6.92 13 -11 13 C-11 10.36 -11 7.72 -11 5 C-10.01 5 -9.02 5 -8 5 C-8 6.65 -8 8.3 -8 10 C-7.05125 9.95875 -6.1025 9.9175 -5.125 9.875 C-2 10 -2 10 0 12 C0 8.04 0 4.08 0 0 Z " fill="#E9CDCD" transform="translate(47,19)"></path><path d="M0 0 C0.33 1.32 0.66 2.64 1 4 C1.66 4 2.32 4 3 4 C3.33 2.68 3.66 1.36 4 0 C4.99 1.32 5.98 2.64 7 4 C6.34 5.32 5.68 6.64 5 8 C3.02 8 1.04 8 -1 8 C-1.66 6.68 -2.32 5.36 -3 4 C-2.01 2.68 -1.02 1.36 0 0 Z " fill="#4D4D4D" transform="translate(172,43)"></path><path d="M0 0 C0.99 0.33 1.98 0.66 3 1 C3 4.96 3 8.92 3 13 C1.68 12.34 0.36 11.68 -1 11 C-1.02688151 9.35425434 -1.04634123 7.70838587 -1.0625 6.0625 C-1.07410156 5.14597656 -1.08570313 4.22945312 -1.09765625 3.28515625 C-1 1 -1 1 0 0 Z " fill="#626262" transform="translate(177,34)"></path><path d="M0 0 C2.85793316 2.85793316 2.40799941 5.14665584 2.625 9.125 C2.69976562 10.40632813 2.77453125 11.68765625 2.8515625 13.0078125 C2.92503906 14.48894531 2.92503906 14.48894531 3 16 C1.68 16 0.36 16 -1 16 C-1.02685095 13.52076199 -1.04676547 11.0418116 -1.0625 8.5625 C-1.07506836 7.50192383 -1.07506836 7.50192383 -1.08789062 6.41992188 C-1.09653588 4.61306441 -1.05220011 2.80612397 -1 1 C-0.67 0.67 -0.34 0.34 0 0 Z " fill="#6C6C6C" transform="translate(216,34)"></path><path d="M0 0 C1.4540625 0.0309375 1.4540625 0.0309375 2.9375 0.0625 C2.9375 1.3825 2.9375 2.7025 2.9375 4.0625 C1.6175 4.0625 0.2975 4.0625 -1.0625 4.0625 C-1.3925 7.6925 -1.7225 11.3225 -2.0625 15.0625 C-2.3925 15.0625 -2.7225 15.0625 -3.0625 15.0625 C-3.0625 11.7625 -3.0625 8.4625 -3.0625 5.0625 C-3.7225 5.0625 -4.3825 5.0625 -5.0625 5.0625 C-3.9375 0.08035714 -3.9375 0.08035714 0 0 Z " fill="#575757" transform="translate(207.0625,30.9375)"></path><path d="M0 0 C1.98 0 3.96 0 6 0 C6 0.99 6 1.98 6 3 C5.51917969 3.42925781 5.03835937 3.85851563 4.54296875 4.30078125 C2.29374504 6.77777445 2.48925239 8.89990549 2.3125 12.1875 C2.24675781 13.27417969 2.18101563 14.36085938 2.11328125 15.48046875 C2.07589844 16.31191406 2.03851563 17.14335938 2 18 C1.67 18 1.34 18 1 18 C0.67 12.06 0.34 6.12 0 0 Z " fill="#636363" transform="translate(95,32)"></path><path d="M0 0 C2.92528027 0.62684577 5.41225673 1.48304705 8 3 C8.33 3.66 8.66 4.32 9 5 C6.36 5 3.72 5 1 5 C0.67 3.35 0.34 1.7 0 0 Z " fill="#565656" transform="translate(107,45)"></path><path d="M0 0 C2.97 0.495 2.97 0.495 6 1 C5.67 2.65 5.34 4.3 5 6 C3.35 6 1.7 6 0 6 C0 4.02 0 2.04 0 0 Z " fill="#343434" transform="translate(181,23)"></path><path d="M0 0 C0.33 0 0.66 0 1 0 C1.08090971 1.62418745 1.13914995 3.24951745 1.1875 4.875 C1.22230469 5.77992187 1.25710937 6.68484375 1.29296875 7.6171875 C1.19628906 8.40351562 1.09960938 9.18984375 1 10 C0.01 10.66 -0.98 11.32 -2 12 C-2.66 11.67 -3.32 11.34 -4 11 C-4 7.7 -4 4.4 -4 1 C-3.67 1 -3.34 1 -3 1 C-3 3.31 -3 5.62 -3 8 C-2.34 8 -1.68 8 -1 8 C-0.67 5.36 -0.34 2.72 0 0 Z " fill="#3A3A3A" transform="translate(158,26)"></path><path d="M0 0 C1.4540625 0.0309375 1.4540625 0.0309375 2.9375 0.0625 C3.5975 1.3825 4.2575 2.7025 4.9375 4.0625 C4.2775 4.0625 3.6175 4.0625 2.9375 4.0625 C2.6075 5.7125 2.2775 7.3625 1.9375 9.0625 C1.6075 9.0625 1.2775 9.0625 0.9375 9.0625 C0.9375 7.4125 0.9375 5.7625 0.9375 4.0625 C-0.0525 4.0625 -1.0425 4.0625 -2.0625 4.0625 C-2.0625 3.4025 -2.0625 2.7425 -2.0625 2.0625 C-2.7225 1.7325 -3.3825 1.4025 -4.0625 1.0625 C-3.0625 0.0625 -3.0625 0.0625 0 0 Z " fill="#3D3D3D" transform="translate(174.0625,30.9375)"></path><path d="M0 0 C0.90105469 0.00902344 1.80210938 0.01804687 2.73046875 0.02734375 C3.41753906 0.03894531 4.10460938 0.05054688 4.8125 0.0625 C4.8125 0.7225 4.8125 1.3825 4.8125 2.0625 C4.24402344 2.12308594 3.67554688 2.18367187 3.08984375 2.24609375 C-1.68531037 2.76426573 -6.4367305 3.35493859 -11.1875 4.0625 C-7.77628592 0.32640839 -4.93646556 -0.06410994 0 0 Z " fill="#A92E3A" transform="translate(35.1875,4.9375)"></path><path d="M0 0 C2.375 0.1875 2.375 0.1875 5 1 C6.375 3.375 6.375 3.375 7 6 C6.67 6.99 6.34 7.98 6 9 C5.67 8.01 5.34 7.02 5 6 C4.34 5.690625 3.68 5.38125 3 5.0625 C1 4 1 4 0.25 1.875 C0.1675 1.25625 0.085 0.6375 0 0 Z " fill="#871C29" transform="translate(65,20)"></path><path d="M0 0 C-2 2 -2 2 -4.8203125 2.1953125 C-5.91085938 2.17210937 -7.00140625 2.14890625 -8.125 2.125 C-9.22070312 2.10695313 -10.31640625 2.08890625 -11.4453125 2.0703125 C-12.28835937 2.04710937 -13.13140625 2.02390625 -14 2 C-14 1.34 -14 0.68 -14 0 C-12.2300132 -0.19532961 -10.45895721 -0.38098882 -8.6875 -0.5625 C-7.70136719 -0.66691406 -6.71523438 -0.77132813 -5.69921875 -0.87890625 C-3 -1 -3 -1 0 0 Z " fill="#97141E" transform="translate(59,14)"></path><path d="M0 0 C0.33 0.66 0.66 1.32 1 2 C-0.95330868 3.03041513 -2.91281528 4.0490893 -4.875 5.0625 C-5.96554688 5.63097656 -7.05609375 6.19945312 -8.1796875 6.78515625 C-9.11039063 7.18605469 -10.04109375 7.58695313 -11 8 C-11.66 7.67 -12.32 7.34 -13 7 C-10.59231297 4.20836288 -8.23853384 3.10282443 -4.8125 1.8125 C-3.91144531 1.46832031 -3.01039062 1.12414062 -2.08203125 0.76953125 C-1.39496094 0.51558594 -0.70789062 0.26164063 0 0 Z " fill="#940D22" transform="translate(29,4)"></path><path d="M0 0 C0 0.66 0 1.32 0 2 C-1.269553 2.64834654 -2.54069706 3.29357815 -3.8125 3.9375 C-4.52019531 4.29714844 -5.22789063 4.65679688 -5.95703125 5.02734375 C-8 6 -8 6 -11 7 C-10.74609375 5.109375 -10.74609375 5.109375 -10 3 C-8.22265625 1.953125 -8.22265625 1.953125 -6.0625 1.25 C-5.35222656 1.00765625 -4.64195313 0.7653125 -3.91015625 0.515625 C-2 0 -2 0 0 0 Z " fill="#A72233" transform="translate(24,9)"></path><path d="M0 0 C0.66 0 1.32 0 2 0 C2 0.66 2 1.32 2 2 C2.8353125 2.37125 2.8353125 2.37125 3.6875 2.75 C6.39971127 4.21606015 8.63587365 6.02989471 11 8 C10.67 8.66 10.34 9.32 10 10 C7.96166576 8.7260411 5.96147874 7.38938077 4 6 C4 5.34 4 4.68 4 4 C2.68 3.34 1.36 2.68 0 2 C0 1.34 0 0.68 0 0 Z " fill="#AF6D73" transform="translate(10,61)"></path><path d="M0 0 C0.66 0 1.32 0 2 0 C2 2.31 2 4.62 2 7 C0.02 7 -1.96 7 -4 7 C-3.67 6.34 -3.34 5.68 -3 5 C-2.34 5 -1.68 5 -1 5 C-0.67 3.35 -0.34 1.7 0 0 Z " fill="#676767" transform="translate(197,43)"></path><path d="M0 0 C1.32 1.32 2.64 2.64 4 4 C3.67 4.99 3.34 5.98 3 7 C0.525 6.01 0.525 6.01 -2 5 C-2 3.68 -2 2.36 -2 1 C-1.34 0.67 -0.68 0.34 0 0 Z " fill="#606060" transform="translate(223,35)"></path><path d="M0 0 C1.65 0 3.3 0 5 0 C5 1.65 5 3.3 5 5 C3.35 5 1.7 5 0 5 C0 3.35 0 1.7 0 0 Z " fill="#3F3F3F" transform="translate(101,24)"></path><path d="M0 0 C0.66 0 1.32 0 2 0 C2 0.66 2 1.32 2 2 C2.86625 2.37125 2.86625 2.37125 3.75 2.75 C6.3002997 4.16683317 8.01785701 5.87627537 10 8 C6.32281907 8 4.92923811 7.17815142 2 5 C0.6875 2.3125 0.6875 2.3125 0 0 Z " fill="#840C1F" transform="translate(56,8)"></path><path d="M0 0 C0.33 0 0.66 0 1 0 C1 8.25 1 16.5 1 25 C0.67 25 0.34 25 0 25 C0 16.75 0 8.5 0 0 Z " fill="#C3C3C3" transform="translate(230,0)"></path><path d="M0 0 C0.33 0 0.66 0 1 0 C1.36116046 1.4774746 1.71375048 2.95704675 2.0625 4.4375 C2.25972656 5.26121094 2.45695312 6.08492187 2.66015625 6.93359375 C2.77230469 7.61550781 2.88445312 8.29742187 3 9 C2.67 9.33 2.34 9.66 2 10 C1.76924918 11.34747084 1.58846937 12.70377565 1.4375 14.0625 C1.293125 15.361875 1.14875 16.66125 1 18 C0.67 18 0.34 18 0 18 C0 12.06 0 6.12 0 0 Z " fill="#7E1A2A" transform="translate(72,30)"></path><path d="M0 0 C1.99954746 -0.04254356 4.00041636 -0.04080783 6 0 C7 1 7 1 7.0625 3.5625 C7.041875 4.366875 7.02125 5.17125 7 6 C6.01 6.495 6.01 6.495 5 7 C4.87625 6.071875 4.87625 6.071875 4.75 5.125 C4.18741541 2.81562433 4.18741541 2.81562433 1.9375 1.75 C1.298125 1.5025 0.65875 1.255 0 1 C0 0.67 0 0.34 0 0 Z " fill="#393939" transform="translate(223,31)"></path><path d="M0 0 C2.97 0.33 5.94 0.66 9 1 C9.33 1.99 9.66 2.98 10 4 C6.7 3.34 3.4 2.68 0 2 C0 1.34 0 0.68 0 0 Z " fill="#A82A37" transform="translate(42,5)"></path><path d="M0 0 C0.33 0 0.66 0 1 0 C2.46845421 5.47332932 1.44038726 8.11922548 -1 13 C-1.66 13 -2.32 13 -3 13 C-2.01 8.71 -1.02 4.42 0 0 Z " fill="#B45659" transform="translate(71,43)"></path><path d="M0 0 C1.67299959 0.65061095 3.33859237 1.32033324 5 2 C5.7425 2.28875 6.485 2.5775 7.25 2.875 C9 4 9 4 9.75 6.125 C9.87375 7.053125 9.87375 7.053125 10 8 C5.74508335 7.52723148 3.77457155 5.07452523 1 2 C0.67 1.34 0.34 0.68 0 0 Z " fill="#A52430" transform="translate(58,13)"></path><path d="M0 0 C0.66 0.33 1.32 0.66 2 1 C1.01 2.485 1.01 2.485 0 4 C-0.38499891 5.65549531 -0.72793135 7.3222433 -1 9 C-1.99 8.67 -2.98 8.34 -4 8 C-3.40138258 5.64828869 -2.73075648 3.3140622 -2 1 C-1.34 0.67 -0.68 0.34 0 0 Z " fill="#A42832" transform="translate(11,17)"></path><path d="M0 0 C1.485 0.99 1.485 0.99 3 2 C3.1875 5.625 3.1875 5.625 3 9 C2.01 9.495 2.01 9.495 1 10 C0.67 6.7 0.34 3.4 0 0 Z " fill="#414141" transform="translate(227,40)"></path><path d="M0 0 C1.2065625 0.0309375 1.2065625 0.0309375 2.4375 0.0625 C2.7675 1.0525 3.0975 2.0425 3.4375 3.0625 C1.4575 3.3925 -0.5225 3.7225 -2.5625 4.0625 C-2.8925 3.0725 -3.2225 2.0825 -3.5625 1.0625 C-2.5625 0.0625 -2.5625 0.0625 0 0 Z " fill="#4F4F4F" transform="translate(223.5625,45.9375)"></path><path d="M0 0 C2 1 2 1 2 1 Z " fill="#000000" transform="translate(105,51)"></path><path d="" fill="#000000" transform="translate(0,0)"></path><path d="" fill="#000000" transform="translate(0,0)"></path><path d="" fill="#000000" transform="translate(0,0)"></path><path d="" fill="#000000" transform="translate(0,0)"></path><path d="" fill="#000000" transform="translate(0,0)"></path><path d="" fill="#000000" transform="translate(0,0)"></path><path d="" fill="#000000" transform="translate(0,0)"></path><path d="" fill="#000000" transform="translate(0,0)"></path><path d="" fill="#000000" transform="translate(0,0)"></path><path d="" fill="#000000" transform="translate(0,0)"></path><path d="" fill="#000000" transform="translate(0,0)"></path><path d="" fill="#000000" transform="translate(0,0)"></path><path d="" fill="#000000" transform="translate(0,0)"></path><path d="" fill="#000000" transform="translate(0,0)"></path><path d="" fill="#000000" transform="translate(0,0)"></path><path d="" fill="#000000" transform="translate(0,0)"></path><path d="" fill="#000000" transform="translate(0,0)"></path><path d="" fill="#000000" transform="translate(0,0)"></path><path d="" fill="#000000" transform="translate(0,0)"></path><path d="" fill="#000000" transform="translate(0,0)"></path><path d="" fill="#000000" transform="translate(0,0)"></path><path d="" fill="#000000" transform="translate(0,0)"></path><path d="" fill="#000000" transform="translate(0,0)"></path><path d="" fill="#000000" transform="translate(0,0)"></path><path d="" fill="#000000" transform="translate(0,0)"></path><path d="" fill="#000000" transform="translate(0,0)"></path><path d="" fill="#000000" transform="translate(0,0)"></path><path d="" fill="#000000" transform="translate(0,0)"></path><path d="" fill="#000000" transform="translate(0,0)"></path><path d="" fill="#000000" transform="translate(0,0)"></path><path d="" fill="#000000" transform="translate(0,0)"></path><path d="" fill="#000000" transform="translate(0,0)"></path><path d="" fill="#000000" transform="translate(0,0)"></path><path d="" fill="#000000" transform="translate(0,0)"></path><path d="" fill="#000000" transform="translate(0,0)"></path><path d="" fill="#000000" transform="translate(0,0)"></path><path d="" fill="#000000" transform="translate(0,0)"></path><path d="" fill="#000000" transform="translate(0,0)"></path><path d="" fill="#000000" transform="translate(0,0)"></path><path d="" fill="#000000" transform="translate(0,0)"></path><path d="" fill="#000000" transform="translate(0,0)"></path><path d="" fill="#000000" transform="translate(0,0)"></path><path d="" fill="#000000" transform="translate(0,0)"></path><path d="" fill="#000000" transform="translate(0,0)"></path><path d="" fill="#000000" transform="translate(0,0)"></path><path d="" fill="#000000" transform="translate(0,0)"></path><path d="" fill="#000000" transform="translate(0,0)"></path><path d="" fill="#000000" transform="translate(0,0)"></path><path d="" fill="#000000" transform="translate(0,0)"></path><path d="" fill="#000000" transform="translate(0,0)"></path><path d="" fill="#000000" transform="translate(0,0)"></path><path d="" fill="#000000" transform="translate(0,0)"></path><path d="" fill="#000000" transform="translate(0,0)"></path><path d="" fill="#000000" transform="translate(0,0)"></path><path d="" fill="#000000" transform="translate(0,0)"></path><path d="" fill="#000000" transform="translate(0,0)"></path><path d="" fill="#000000" transform="translate(0,0)"></path><path d="" fill="#000000" transform="translate(0,0)"></path><path d="" fill="#000000" transform="translate(0,0)"></path><path d="" fill="#000000" transform="translate(0,0)"></path><path d="" fill="#000000" transform="translate(0,0)"></path><path d="" fill="#000000" transform="translate(0,0)"></path></svg>