<svg xmlns="http://www.w3.org/2000/svg" width="16" height="15" viewBox="0 0 16 15" fill="none"><path d="M10.954 9.62883L10.5708 10.0011C10.5708 10.0011 9.66001 10.8863 7.17401 8.47027C4.68802 6.05432 5.59878 5.16921 5.59878 5.16921L5.84006 4.93471C6.43452 4.35704 6.49055 3.42959 5.97189 2.75252L4.91108 1.36751C4.26919 0.529503 3.02887 0.418803 2.29315 1.13379L0.972668 2.41708C0.607869 2.7716 0.363408 3.23117 0.393055 3.74098C0.468897 5.04526 1.07266 7.85152 4.44173 11.1257C8.01445 14.5977 11.3667 14.7357 12.7376 14.6108C13.1712 14.5713 13.5483 14.3555 13.8521 14.0601L15.0473 12.8988C15.854 12.1148 15.6265 10.7707 14.5943 10.2223L12.9871 9.36834C12.3093 9.00827 11.4837 9.11401 10.954 9.62883Z" fill="#9C122A"></path></svg>