<svg xmlns="http://www.w3.org/2000/svg" width="82" height="83" viewBox="0 0 82 83" fill="none"><path d="M80.2637 41.7773C80.2637 20.0706 62.6667 2.47292 40.96 2.47266C19.253 2.47266 1.65527 20.0704 1.65527 41.7773C1.65554 63.4841 19.2532 81.0811 40.96 81.0811V82.6748L39.9043 82.6611C18.1553 82.1103 0.625995 64.581 0.0751953 42.832L0.0615234 41.7773C0.0615234 19.19 18.3726 0.878906 40.96 0.878906L42.0146 0.892578C64.1143 1.45226 81.8574 19.5428 81.8574 41.7773L81.8438 42.832C81.2841 64.9315 63.1943 82.6745 40.96 82.6748V81.0811C62.6665 81.0808 80.2634 63.4839 80.2637 41.7773Z" fill="black"></path><path d="M50.0112 36.1416C50.3225 35.8304 50.827 35.8304 51.1382 36.1416L56.2104 41.2139C56.5216 41.5251 56.5216 42.0296 56.2104 42.3408L51.1382 47.4131C50.827 47.7243 50.3225 47.7242 50.0112 47.4131C49.7 47.1018 49.7 46.5974 50.0112 46.2861L53.7231 42.5742H26.272V40.9805H53.7231L50.0112 37.2685C49.7 36.9573 49.7 36.4529 50.0112 36.1416Z" fill="black"></path></svg>