<svg xmlns="http://www.w3.org/2000/svg" width="83" height="83"><path d="M0 0 C7.80611738 7.19507101 13.44201897 16.28262708 14.234375 27.08984375 C14.50691216 40.8601424 11.44940055 51.47064564 1.99609375 61.83984375 C-7.58834016 70.52069467 -18.6206188 73.61397411 -31.390625 73.22265625 C-43.60260902 71.92884605 -53.49084922 65.45315509 -61.28125 56.19140625 C-68.00283299 47.01591201 -69.74168695 36.28367819 -68.6015625 25.14453125 C-66.59785201 14.06519091 -60.93916781 4.06764778 -51.69140625 -2.47265625 C-35.05985445 -12.6725858 -15.30877298 -12.90739682 0 0 Z M-55.9765625 4.91015625 C-64.31648962 15.07388909 -66.81303846 24.86376057 -66.00390625 37.83984375 C-64.27280201 48.19712842 -58.18742113 57.34164679 -50.00390625 63.83984375 C-40.01889091 70.18782146 -29.6114076 72.07601638 -18.00390625 69.83984375 C-7.49774217 66.78158771 0.36254142 61.26466753 6.37109375 52.08984375 C11.96195887 41.9048137 13.391118 31.35822896 10.23828125 20.14453125 C6.66232247 10.31815714 -0.10104254 1.64911637 -9.33984375 -3.44921875 C-25.19591695 -10.77145853 -43.76538312 -7.90553696 -55.9765625 4.91015625 Z " fill="#000000" transform="translate(69.00390625,10.16015625)"></path><path d="M0 0 C2.31 1.98 4.62 3.96 7 6 C4.5 11 4.5 11 2 13 C1.01 13 0.02 13 -1 13 C-0.34 11.68 0.32 10.36 1 9 C-7.25 8.67 -15.5 8.34 -24 8 C-24 7.34 -24 6.68 -24 6 C-11.625 5.505 -11.625 5.505 1 5 C0.34 3.68 -0.32 2.36 -1 1 C-0.67 0.67 -0.34 0.34 0 0 Z " fill="#000000" transform="translate(51,35)"></path></svg>